<svg width="183" height="91" viewBox="0 0 183 91" fill="none" xmlns="http://www.w3.org/2000/svg">
<path d="M166.199 22.215C169.757 21.3743 169.926 25.3977 170.483 28.0448C172.529 37.7472 172.283 47.951 171.055 57.7199L166.692 58.7813C167.161 59.786 168.858 59.325 169.679 60.4676C170.838 62.076 169.588 66.463 167.182 66.192C167.179 67.2843 168.204 67.6267 168.165 68.8407C168.097 71.0237 164.031 77.3436 161.896 77.9425C160.084 78.4505 151.622 75.4399 148.966 74.8247C134.83 71.5544 119.939 69.6165 105.402 69.1264C102.568 69.0306 95.9627 68.6752 93.5541 69.1442C92.1476 69.4169 92.1637 71.4862 90.0758 71.6128C87.5915 71.7621 87.0904 69.2708 86.5668 69.141C74.4563 69.7902 62.3506 70.9068 50.369 72.7522C43.5847 73.7974 26.7666 78.4181 21.1987 77.5189C17.4771 76.9184 12.5923 67.1447 12.2975 63.7672C12.1106 61.6329 15.0202 61.7433 15.0138 59.7665L11.7642 59.3218C9.99364 57.8627 9.78742 40.3018 10.1499 37.3463C10.477 34.6813 10.8765 33.9542 13.5445 33.331C13.5445 31.6187 10.8685 32.4594 11.123 28.9618C11.4533 24.4093 15.1781 13.8987 20.311 12.9346C42.0043 15.994 63.7523 18.7434 85.7162 19.2903C87.1613 19.5792 87.1629 17.9838 88.012 17.6056C91.1165 16.2212 91.7739 18.9008 93.5734 19.2465C95.5164 19.6198 100.205 19.3487 102.447 19.2773C110.912 19.0079 121.007 18.1753 129.449 17.2177C139.96 16.0248 150.285 13.7429 160.469 11C162.874 11.1574 167.972 18.0211 167.48 19.7659C167.232 20.6504 166.019 21.1454 166.201 22.2198L166.199 22.215Z" fill="white" fill-opacity="0.03"/>
<path d="M87.2559 70.0264L86.8398 70.3027C86.7616 70.1842 86.6901 70.0693 86.6279 69.9707C86.5641 69.8695 86.5115 69.7872 86.4639 69.7188C86.4442 69.6905 86.4245 69.669 86.4102 69.6504C85.4631 69.7015 84.5162 69.7555 83.5693 69.8125L83.5391 69.3145C81.5212 69.4359 79.5038 69.5699 77.4873 69.7197L77.5244 70.2178C75.5108 70.3674 73.4982 70.5325 71.4873 70.7129L71.4424 70.2158C69.4283 70.3965 67.4158 70.5928 65.4053 70.8066L65.459 71.3027C63.4512 71.5163 61.4452 71.747 59.4424 71.9961L59.3799 71.5C57.3731 71.7496 55.3692 72.0199 53.3682 72.3076L53.4395 72.8008C52.4406 72.9444 51.4425 73.0925 50.4453 73.2461C49.4449 73.4002 48.2177 73.6343 46.8311 73.9189L46.7305 73.4307C44.5911 73.8698 42.0889 74.4243 39.4834 74.9873L39.5889 75.4766C37.1886 75.9952 34.6958 76.52 32.3154 76.9648L32.2236 76.4736L32.2227 76.4727C29.5338 76.9751 26.9912 77.373 24.8887 77.543L24.8896 77.5449L24.9307 78.0439C23.6209 78.1499 22.452 78.1704 21.5088 78.0654L21.1191 78.0127C19.8554 77.8088 18.5837 76.7443 17.4453 75.4072L17.8252 75.083L17.8262 75.0811C16.1476 73.1092 14.5596 70.2772 13.5176 67.8115V67.8125L13.0566 68.0068C12.4514 66.5748 12.0116 65.2284 11.8506 64.2207L11.7998 63.8105C11.7443 63.176 11.9119 62.6738 12.209 62.2656L12.6133 62.5605H12.6143C13.0994 61.8941 14.0141 61.5408 14.5635 60.9277L14.1914 60.5947C14.3013 60.4721 14.3859 60.3417 14.4414 60.1924L14.1338 60.1504L14.2002 59.6553L12.5752 59.4326L12.5088 59.9287L11.6963 59.8174L11.5557 59.7979L11.4463 59.708C11.1489 59.4629 10.9508 59.0281 10.8018 58.582C10.6432 58.1074 10.5056 57.5071 10.3848 56.8223L10.877 56.7354L10.8789 56.7344C10.6195 55.2639 10.4245 53.3152 10.2861 51.2129V51.2139L9.78711 51.2471C9.66771 49.4337 9.58913 47.5085 9.54492 45.6777L10.0449 45.665L10.0459 45.6641C9.99592 43.5935 9.98968 41.6424 10.0176 40.1113H10.0166L9.5166 40.1025C9.53964 38.8385 9.58575 37.8361 9.65332 37.2852C9.72267 36.7201 9.79751 36.224 9.89941 35.791L10.3857 35.9053H10.3887C10.6526 34.7846 11.0951 34.1884 12.1484 33.7549L12.1475 33.7529L11.957 33.29C12.2506 33.1692 12.5809 33.0631 12.9512 32.9639C12.9483 32.9594 12.9463 32.9545 12.9434 32.9502C12.8791 32.855 12.7764 32.7627 12.6104 32.6494L12.8916 32.2373C12.2933 31.8292 11.4617 31.5073 11.1934 30.292V30.293L10.7051 30.4014C10.6133 29.9864 10.5822 29.501 10.624 28.9258C10.6755 28.216 10.8052 27.3782 11.0029 26.4678L11.4912 26.5742H11.4922C11.7981 25.1657 12.2764 23.556 12.8994 21.9463H12.8975L12.4316 21.7666C13.0225 20.2397 13.7444 18.7063 14.5791 17.3359L15.0068 17.5957L15.0088 17.5967C15.9266 16.0902 16.9766 14.7917 18.1328 13.9385L17.8359 13.5361C18.5727 12.9925 19.3695 12.6029 20.2188 12.4434L20.2998 12.4277L20.3809 12.4395C21.4657 12.5924 22.5507 12.7443 23.6357 12.8955L23.5664 13.3896C25.7372 13.6921 27.9088 13.9897 30.0811 14.2822L30.1475 13.7891C32.3186 14.0814 34.4905 14.3679 36.6631 14.6465L36.5996 15.1416C38.7736 15.4203 40.9489 15.6881 43.125 15.9492L43.1846 15.4561C45.359 15.717 47.5344 15.9684 49.7109 16.208L49.6562 16.7021C51.835 16.942 54.0148 17.1721 56.1963 17.3867L56.2451 16.8906C58.424 17.105 60.6045 17.3057 62.7861 17.4912L62.7432 17.9883C64.9264 18.1739 67.1112 18.3451 69.2979 18.498H69.2988L69.334 17.999C71.5169 18.1517 73.7014 18.2871 75.8877 18.4033L75.8613 18.9014C78.0488 19.0176 80.2382 19.1143 82.4297 19.1904L82.4473 18.6924C83.5405 18.7303 84.6343 18.7628 85.7285 18.79L85.7715 18.792L85.8145 18.7998L85.9717 18.8223C86.1137 18.833 86.211 18.8115 86.2812 18.7832L86.4678 19.2471C86.9474 19.054 87.176 18.5391 87.4629 18.1221L87.4619 18.1211L87.0498 17.8379C87.2154 17.5973 87.4484 17.3089 87.8086 17.1484C88.426 16.8732 88.9774 16.737 89.4814 16.7148L89.5039 17.2139C90.7308 17.1601 91.4624 17.9077 92.2227 18.5195L92.5342 18.1328C92.8875 18.4171 93.193 18.6236 93.5244 18.7207L93.668 18.7559C94.1795 18.8541 94.9224 18.9076 95.7969 18.9287L95.7852 19.4268C97.1677 19.4601 98.8039 19.4131 100.228 19.3604L100.21 18.8613C101.053 18.8301 101.832 18.7964 102.432 18.7773C103.531 18.7423 104.659 18.6976 105.807 18.6445L105.829 19.1436C108.025 19.042 110.296 18.9094 112.59 18.752L112.557 18.2539C114.797 18.1002 117.06 17.9228 119.299 17.7285L119.341 18.2256C121.63 18.0269 123.894 17.8108 126.082 17.583L126.031 17.0859C127.175 16.9669 128.298 16.8449 129.393 16.7207C130.264 16.6218 131.135 16.5159 132.004 16.4023L132.067 16.8945C133.813 16.6664 135.554 16.4127 137.29 16.1299L137.21 15.6367C138.942 15.3546 140.669 15.0468 142.392 14.7158L142.485 15.2031C144.213 14.8712 145.937 14.5176 147.655 14.1426L147.549 13.6562C149.264 13.282 150.976 12.8871 152.683 12.4756L152.799 12.9609C154.509 12.5486 156.215 12.1186 157.917 11.6748L157.792 11.1924C158.642 10.9708 159.491 10.746 160.339 10.5176L160.419 10.4961L160.502 10.501C160.955 10.5308 161.427 10.7314 161.879 11.0039C162.338 11.2811 162.817 11.6584 163.292 12.0938L162.954 12.4609C164.293 13.6887 165.691 15.4851 166.581 17.0342L167.015 16.7861L167.26 17.2305C167.492 17.6701 167.682 18.0915 167.812 18.4746C167.957 18.9001 168.054 19.3486 167.996 19.7383L167.962 19.9014C167.873 20.2196 167.7 20.4811 167.531 20.6953L167.138 20.3857C166.844 20.7591 166.462 21.098 166.283 21.5215L166.567 21.6406C167.307 21.5415 167.942 21.6423 168.479 21.9316L168.243 22.3721L168.241 22.374C169.347 22.9692 169.79 24.4599 170.095 25.9854H170.097L170.587 25.8877C170.659 26.2476 170.723 26.609 170.785 26.9541L170.973 27.9414C171.231 29.1662 171.453 30.3987 171.642 31.6367L171.146 31.7109C171.52 34.1638 171.759 36.6407 171.887 39.127H171.888L172.387 39.1006C172.515 41.5951 172.53 44.0979 172.453 46.5938L171.954 46.5781L171.953 46.5771C171.877 49.0664 171.709 51.5504 171.469 54.0146L171.47 54.0156L171.967 54.0645C171.846 55.3096 171.707 56.5495 171.552 57.7822L171.509 58.124L171.174 58.2061L170.083 58.4707L169.964 57.9844L167.783 58.5156L167.901 59.002L167.438 59.1143L167.338 59.3486C167.826 59.5555 168.465 59.6236 169.01 59.9053L169.012 59.9033L169.241 59.459C169.509 59.5978 169.77 59.7867 169.992 60.0557L170.085 60.1758C170.483 60.7282 170.628 61.4813 170.616 62.2236L170.116 62.2148L170.114 62.2139C170.095 63.4091 169.625 64.7738 168.831 65.5576L168.833 65.5596L169.185 65.915C168.8 66.2945 168.328 66.5755 167.786 66.6689C167.788 66.6727 167.789 66.6769 167.791 66.6807L167.337 66.8877C167.536 67.3207 167.874 67.6574 168.051 68.1338H168.053L168.521 67.9609L168.587 68.1631C168.624 68.3021 168.65 68.4503 168.66 68.6094L168.665 68.8564C168.642 69.602 168.246 70.6554 167.706 71.7334L167.259 71.5098L167.258 71.5088C166.467 73.09 165.265 74.9033 164.102 76.209L164.104 76.2109L164.477 76.543C164.064 77.0062 163.647 77.4177 163.244 77.7393C162.898 78.0161 162.538 78.246 162.184 78.375L162.031 78.4238C161.641 78.5331 161.104 78.512 160.534 78.4404C159.944 78.3662 159.244 78.2267 158.487 78.0488L158.601 77.5615C156.632 77.0985 154.197 76.3524 152.174 75.7402L152.03 76.2188C150.691 75.8135 149.556 75.4744 148.853 75.3115C147.963 75.1058 147.071 74.9051 146.176 74.71L146.281 74.2217C144.496 73.8324 142.7 73.4631 140.895 73.1162V73.1172L140.8 73.6084C139.007 73.2639 137.206 72.9408 135.398 72.6387L135.48 72.1445C133.674 71.8427 131.862 71.5629 130.045 71.3037L129.975 71.7988C128.164 71.5405 126.349 71.3033 124.532 71.0879L124.591 70.5908C122.769 70.3749 120.945 70.1812 119.121 70.0088L119.075 70.5068C117.251 70.3344 115.427 70.1831 113.605 70.0547L113.641 69.5557C111.808 69.4265 109.977 69.3195 108.15 69.2354V69.2363L108.127 69.7354C107.212 69.6932 106.297 69.6567 105.385 69.626C104.621 69.6002 103.572 69.5548 102.421 69.5127L102.438 69.0137C100.549 68.9445 98.3442 68.8825 96.5068 68.9189L96.5166 69.418C95.4626 69.4389 94.5565 69.4918 93.9102 69.5898L93.6494 69.6348C93.4018 69.6828 93.2096 69.817 93.002 70.0479L92.6309 69.7148C92.176 70.2208 91.8334 70.9212 91.1309 71.3164L91.1318 71.3184L91.3779 71.7539C91.0259 71.952 90.6098 72.0817 90.1064 72.1123H90.1055C89.6147 72.1418 89.1795 72.0811 88.7939 71.9531L88.9512 71.4785V71.4766C88.1167 71.1993 87.6117 70.5655 87.2559 70.0264Z" stroke="white" stroke-opacity="0.18" stroke-dasharray="6 6"/>
</svg>
