<svg width="220" height="117" viewBox="0 0 220 117" fill="none" xmlns="http://www.w3.org/2000/svg">
<path d="M87.2463 32.5967C86.9308 32.6584 85.5112 34.4484 83.8104 35.285C82.3085 36.0188 81.0398 35.8611 80.0933 35.7102C79.7162 35.6485 79.6613 36.2246 79.7573 36.5881C79.8327 36.8898 81.1358 37.9734 81.1358 40.5589C81.1358 41.4916 81.1358 82.9483 81.1358 82.9483C81.1358 95.3545 76.6781 101.218 69.0382 105.635C68.8942 105.717 68.9491 105.95 69.1205 105.943C77.8028 105.456 84.7431 95.3476 84.7431 82.9483V38.0694C85.0174 36.5606 85.5592 35.7171 86.4782 34.7501C87.5549 33.6185 87.5755 32.535 87.2463 32.6035" fill="#7FD344"/>
<path d="M81.4514 30.9506C81.9314 30.3265 82.7955 29.195 83.5773 28.0702C84.6952 26.4586 84.7432 23.8457 84.7432 20.883C84.7432 20.7184 84.5443 20.6293 84.4277 20.7459C83.5568 21.5963 81.1976 24.1475 81.1976 26.6369C81.1976 28.756 81.1428 30.1139 81.1085 30.8272C81.0948 31.0123 81.3348 31.1015 81.4514 30.9506Z" fill="#7FD344"/>
<path d="M131.926 32.5967C131.611 32.6584 130.191 34.4484 128.491 35.285C126.989 36.0188 125.72 35.8611 124.774 35.7102C124.396 35.6485 124.341 36.2246 124.437 36.5881C124.513 36.8898 125.816 37.9734 125.816 40.5589C125.816 41.4916 125.816 82.9483 125.816 82.9483C125.816 95.3545 121.358 101.218 113.718 105.635C113.574 105.717 113.629 105.95 113.801 105.943C122.483 105.456 129.423 95.3476 129.423 82.9483V38.0694C129.698 36.5606 130.239 35.7171 131.158 34.7501C132.235 33.6185 132.256 32.535 131.926 32.6035" fill="#7FD344"/>
<path d="M126.132 30.9506C126.612 30.3265 127.476 29.195 128.258 28.0702C129.375 26.4586 129.423 23.8457 129.423 20.883C129.423 20.7184 129.225 20.6293 129.108 20.7459C128.237 21.5963 125.878 24.1475 125.878 26.6369C125.878 28.756 125.823 30.1139 125.789 30.8272C125.775 31.0123 126.015 31.1015 126.132 30.9506Z" fill="#7FD344"/>
<path d="M213.674 52.4575C213.674 52.4575 213.695 53.6165 213.132 54.0005C212.344 54.5355 205.822 58.8766 204.519 59.7338C203.565 60.3579 203.565 59.3018 203.565 59.3018V57.0661C203.565 47.2248 205.712 42.4379 210.382 37.9459C211.164 37.1915 212.364 36.4303 212.927 36.2245C213.64 35.9639 213.674 36.0942 213.674 36.6497C213.674 36.6497 213.674 37.9733 213.674 40.5519V52.4506V52.4575ZM20.8882 37.9253C18.577 40.2571 10.944 45.8669 10.1005 46.4979C9.29809 47.1014 9.17465 46.3881 9.15407 46.1824V43.7066C9.17465 42.7877 9.78502 42.3762 9.78502 42.3762C9.78502 42.3762 20.0789 34.4689 20.7236 33.934C21.2859 33.4607 21.4231 33.9682 21.4574 34.2357V36.6772C21.4299 36.9378 21.3202 37.4864 20.8882 37.9253ZM219.874 32.3498C219.565 32.3498 218.413 33.0904 217.323 33.2413C216.219 33.399 215.423 33.4745 213.612 33.9888C212.399 34.3317 211.178 34.8872 209.998 35.5867C204.135 39.0638 199.951 47.506 199.951 57.0592V82.9414C199.951 95.3476 195.494 101.211 187.854 105.628C187.71 105.71 187.765 105.943 187.936 105.93C196.618 105.443 203.559 95.3339 203.559 82.9345V63.8007C203.559 62.8474 203.559 62.7171 204.238 62.2645C205.006 61.757 212.015 57.0729 212.858 56.538C213.578 56.0785 213.654 56.7163 213.66 56.874V93.5782C213.66 98.2348 211.678 112.973 198.47 112.973C197.002 112.973 14.2427 112.973 14.2427 112.973C21.5122 107.617 26.4774 96.8563 26.4774 84.4639V44.3924V11.1447C26.4774 8.86786 27.609 7.85972 28.8983 6.50869C30.4002 4.92448 30.4345 3.41572 29.9751 3.51173C29.5361 3.60089 27.5473 6.09721 25.1744 7.26307C23.0759 8.29178 21.3065 8.06546 19.9898 7.85972C19.4617 7.77742 19.0365 8.50438 19.5166 9.08731C19.7909 9.42335 21.4368 11.0281 21.4368 14.6286V30.6147C21.4094 30.8684 21.2996 31.4308 20.8607 31.8697C18.5496 34.2014 10.9166 39.8113 10.073 40.4422C9.27751 41.0389 9.14721 40.3393 9.12663 40.1336V32.1028C9.12663 14.7863 15.3469 6.59099 26.0111 0.425619C26.2168 0.309032 26.1346 -0.0132914 25.8945 0.000424606C13.7695 0.679369 4.07913 14.7932 4.07913 32.1097V36.1559V69.4037C3.69509 71.5091 2.9407 72.6887 1.65825 74.0397C0.156344 75.6239 0.122049 77.1327 0.581536 77.0367C1.02045 76.9475 3.00928 74.4512 5.38216 73.2853C7.48071 72.2566 9.25008 72.4829 10.5668 72.6887C11.088 72.771 11.1703 71.9754 11.04 71.4611C10.9303 71.0359 9.11979 69.5202 9.11979 65.9198V49.7486C9.1335 48.8159 9.75072 48.3975 9.75072 48.3975C9.75072 48.3975 20.0446 40.4902 20.6893 39.9553C21.2516 39.489 21.3888 39.9827 21.4231 40.2571V84.4708C21.4231 101.787 15.2028 109.976 4.53861 116.148C4.33287 116.265 4.41518 116.573 4.65521 116.573H196.872C210.321 116.573 217.254 109.516 217.254 93.5782V38.0488C217.254 36.492 218.132 35.4496 219.051 34.4826C219.812 33.6802 220.251 32.336 219.846 32.336" fill="#7FD344"/>
<path d="M68.0441 52.0598C64.6905 55.1939 61.2684 57.4091 57.8119 58.8355C57.181 59.0961 56.3717 58.911 56.3717 57.6765C56.3717 55.3242 56.3717 45.0303 56.3717 44.5914C56.3717 44.1525 56.502 43.6998 57.0781 43.1375C57.6953 42.5408 59.6019 41.8139 61.7416 40.4286C63.6276 39.2078 64.4093 38.5358 64.766 38.2751C65.1226 38.0145 65.1363 38.426 65.1363 38.4672V47.5609C65.1363 47.7118 65.294 47.801 65.4244 47.7324L68.627 46.0453C68.7025 46.0042 68.7436 45.9287 68.7299 45.8464C68.5722 44.4885 68.1058 38.3574 68.7162 33.3648C68.8534 32.2264 68.2156 31.6777 67.5572 32.5213C67.0634 33.1522 65.925 34.709 65.1363 35.4977C64.1144 36.4784 62.7909 37.8088 61.3027 38.8787C59.5196 40.1543 57.9011 40.8195 57.3044 40.6686C56.55 40.4766 56.3032 39.7633 56.3717 38.8924C56.3992 38.5426 56.4403 38.1997 56.4815 38.0077C56.7969 36.6361 57.3867 35.7034 58.3126 34.7364C59.3893 33.6048 59.4099 32.5213 59.0807 32.5898C58.7652 32.6516 57.3456 34.4415 55.6448 35.2782C54.1429 36.012 52.8741 35.8543 51.9346 35.7034C51.5574 35.6417 51.5025 36.2177 51.5985 36.5812C51.674 36.883 53.1005 37.9734 53.1005 40.552V61.1672C53.1005 61.1672 53.1279 61.9216 52.7507 62.6006C52.6615 62.7652 52.7918 62.9709 52.977 62.9366C54.2046 62.7309 57.0164 61.565 59.4579 60.358C61.7073 59.247 63.3875 58.1497 64.7111 57.2239C64.8963 57.0936 65.15 57.1553 65.15 57.4639V82.9346C65.15 95.3408 60.6923 101.204 53.0524 105.621C52.9016 105.703 52.9633 105.936 53.1347 105.93C61.817 105.443 68.7573 95.3339 68.7573 82.9346V52.2998C68.7573 51.9912 68.2979 51.8129 68.0441 52.0461" fill="#7FD344"/>
<path d="M153.035 52.0598C149.682 55.1939 146.26 57.4091 142.803 58.8355C142.172 59.0961 141.363 58.911 141.363 57.6765C141.363 55.3242 141.363 45.0303 141.363 44.5914C141.363 44.1525 141.493 43.6998 142.069 43.1375C142.687 42.5408 144.593 41.8139 146.733 40.4286C148.619 39.2078 149.401 38.5358 149.757 38.2751C150.114 38.0145 150.128 38.426 150.128 38.4672V47.5609C150.128 47.7118 150.285 47.801 150.416 47.7324L153.618 46.0453C153.694 46.0042 153.735 45.9287 153.721 45.8464C153.563 44.4885 153.097 38.3574 153.707 33.3648C153.845 32.2264 153.207 31.6777 152.548 32.5213C152.055 33.1522 150.916 34.709 150.128 35.4977C149.106 36.4784 147.782 37.8088 146.294 38.8787C144.511 40.1543 142.892 40.8195 142.296 40.6686C141.541 40.4766 141.294 39.7633 141.363 38.8924C141.39 38.5426 141.432 38.1997 141.473 38.0077C141.788 36.6361 142.378 35.7034 143.304 34.7364C144.38 33.6048 144.401 32.5213 144.072 32.5898C143.756 32.6516 142.337 34.4415 140.636 35.2782C139.134 36.012 137.865 35.8543 136.926 35.7034C136.549 35.6417 136.494 36.2177 136.59 36.5812C136.665 36.883 138.092 37.9734 138.092 40.552V61.1672C138.092 61.1672 138.119 61.9216 137.742 62.6006C137.653 62.7652 137.783 62.9709 137.968 62.9366C139.196 62.7309 142.008 61.565 144.449 60.358C146.698 59.247 148.379 58.1497 149.702 57.2239C149.887 57.0936 150.141 57.1553 150.141 57.4639V82.9346C150.141 95.3408 145.683 101.204 138.044 105.621C137.893 105.703 137.955 105.936 138.126 105.93C146.808 105.443 153.749 95.3339 153.749 82.9346V52.2998C153.749 51.9912 153.289 51.8129 153.035 52.0461" fill="#7FD344"/>
<path d="M113.307 33.3649C113.307 32.2196 112.704 31.8835 112.045 32.7271C111.552 33.358 110.571 34.7159 109.775 35.5046C108.753 36.4784 107.43 37.8157 105.942 38.8856C104.159 40.1612 102.499 40.943 101.943 40.6755C101.107 40.2778 101.011 39.297 101.004 39.2559V38.0695C101.278 36.5607 101.813 35.7172 102.739 34.7502C103.816 33.6186 103.843 32.535 103.507 32.6036C103.192 32.6653 101.772 34.4553 100.071 35.292C98.5692 36.0258 97.3005 35.8681 96.361 35.7172C95.9838 35.6555 95.9289 36.2315 96.0249 36.6018C96.1004 36.9036 97.4034 37.9872 97.4034 40.5726C97.4034 41.5053 97.4034 82.9621 97.4034 82.9621C97.4034 95.3683 92.9457 101.232 85.3058 105.648C85.155 105.731 85.2167 105.964 85.3881 105.957C94.0704 105.47 101.011 95.3614 101.011 82.9621V44.6738C101.011 44.6738 101.045 43.8234 101.724 43.1513C102.341 42.5546 104.248 41.8345 106.387 40.4423C108.273 39.2216 109.055 38.5495 109.405 38.2889C109.762 38.0283 109.775 38.433 109.775 38.481V38.7141L109.57 82.9621C109.57 95.3683 105.112 101.232 97.472 105.648C97.328 105.731 97.3828 105.964 97.5543 105.957C106.243 105.47 113.177 95.3614 113.177 82.9621C113.177 82.9621 113.307 36.9242 113.307 33.3854" fill="#7FD344"/>
<path d="M172.588 31.2044C172.307 30.9849 171.861 31.0329 171.539 31.3895C171.271 31.6844 171.333 32.0411 171.086 32.336C170.674 32.8229 170.105 32.9326 169.749 32.7611C169.406 32.5966 169.262 32.2811 169.262 31.6022V19.8063C169.275 18.4142 170.071 17.454 170.997 16.4871C172.073 15.3555 172.094 14.2719 171.765 14.3405C171.449 14.4022 170.03 16.1922 168.329 17.0288C166.827 17.7695 165.558 17.6049 164.619 17.454C164.242 17.3923 164.187 17.9684 164.283 18.3387C164.358 18.6405 165.661 19.724 165.661 22.3095V34.3659C165.661 34.8186 165.558 35.2849 165.325 35.6484C164.941 36.2382 164.53 36.7045 163.837 37.1092C163.364 37.3835 162.678 37.4932 162.26 37.9458C161.917 38.323 162.246 38.7757 162.561 38.8648C163.185 39.0363 164.55 38.6659 164.838 38.5425C165.099 38.4396 165.558 38.1859 165.654 38.1379C165.654 43.6997 165.654 82.9551 165.654 82.9551C165.654 95.3612 161.197 101.225 153.564 105.641C153.413 105.724 153.474 105.957 153.646 105.943C162.328 105.456 169.269 95.3475 169.269 82.9482V36.101C169.269 35.5455 169.996 35.3466 170.352 35.2095C171.264 34.8597 172.039 34.1328 172.602 33.1864C172.869 32.7406 173.054 31.5541 172.602 31.2044" fill="#7FD344"/>
<path d="M184.006 44.5914C184.006 44.1456 184.137 43.6998 184.713 43.1375C185.33 42.5408 187.236 41.8139 189.376 40.4286C191.262 39.2078 192.044 38.5358 192.394 38.2751C192.75 38.0145 192.764 38.426 192.764 38.4672V47.5609C192.764 47.7049 192.922 47.801 193.052 47.7324L196.255 46.0453C196.323 46.0042 196.371 45.9287 196.358 45.8464C196.2 44.4885 195.733 38.3574 196.344 33.3648C196.481 32.2264 195.843 31.6777 195.185 32.5213C194.691 33.1522 193.553 34.709 192.764 35.4977C191.742 36.4715 190.419 37.8088 188.93 38.8787C187.154 40.1474 185.529 40.8195 184.932 40.6686C184.178 40.4766 183.931 39.7633 183.999 38.8924C184.027 38.5426 184.068 38.1997 184.109 38.0077C184.425 36.6361 185.021 35.7034 185.94 34.7364C187.017 33.6048 187.038 32.5213 186.708 32.5898C186.393 32.6516 184.973 34.4415 183.272 35.2782C181.771 36.012 180.502 35.8543 179.555 35.7034C179.178 35.6417 179.123 36.2177 179.219 36.5812C179.295 36.883 180.721 37.9665 180.721 40.552C180.721 42.1294 180.708 82.9826 180.708 82.9826C180.708 95.3888 176.25 101.252 168.61 105.669C168.466 105.751 168.521 105.984 168.692 105.971C177.375 105.484 184.315 95.3751 184.315 82.9758C184.315 82.9758 183.999 45.0235 183.999 44.5845" fill="#7FD344"/>
</svg>
