<svg width="208" height="68" viewBox="0 0 208 68" fill="none" xmlns="http://www.w3.org/2000/svg">
<path d="M22.7401 0.0203626C23.771 0.160586 24.9307 0.0455292 25.9738 0.0391271L31.7609 0.0458548L55.0436 0.0492514L142.515 0.0545741L173.221 0.0647403L183.528 0.0538948C185.379 0.0513125 187.255 -0.0173291 189.104 0.0703142C190.049 0.115111 191.218 0.255158 192.009 0.823176C193.712 2.04649 193.334 4.96385 193.648 6.81549C194.479 11.8826 197.748 16.2172 202.392 18.4084C204.024 19.1899 205.855 19.6636 207.335 20.7211C207.588 21.2167 207.821 21.6504 207.856 22.2162C208.06 25.4781 207.828 29.2293 207.825 32.5529C207.82 36.4994 208.035 40.7572 207.787 44.6742C207.749 45.2798 207.625 46.9811 207.247 47.4092C206.47 48.2867 204.561 48.6547 203.493 49.0469C200.417 50.1761 197.541 52.2396 195.815 55.0713C194.944 56.5001 194.221 58.0997 193.808 59.7249C193.343 61.5562 193.631 64.8252 192.379 66.222C191.502 67.2004 189.997 67.1316 188.799 67.1907C180.789 67.3298 172.756 67.1809 164.743 67.1893L109.197 67.1879L49.385 67.193C39.8645 67.1888 30.3271 67.3191 20.8082 67.1804C19.8563 67.1665 16.9876 67.2493 16.2247 66.7808C14.4987 65.7204 14.5732 62.0941 14.1634 60.2679C13.048 55.2965 10.0489 51.5999 5.39739 49.5341C3.86681 48.8543 2.20437 48.4695 0.779729 47.5678C0.599864 47.1747 0.399969 46.7629 0.270167 46.3497C-0.187053 44.8951 0.111517 42.6904 0.108194 41.1476C0.0895077 37.8008 0.0911343 34.4538 0.113075 31.1069C0.10972 28.2749 -0.14144 25.0301 0.115789 22.2456C0.167523 21.6855 0.424186 21.2188 0.681766 20.7274C1.61494 20.0623 2.80028 19.6813 3.8555 19.2431C5.96674 18.3665 7.8055 17.3306 9.53622 15.8152C12.4578 13.2569 14.0613 9.50164 14.5976 5.71875C14.7537 4.6181 14.6593 3.38385 14.9365 2.32019C15.0536 1.8707 15.2925 1.50876 15.6087 1.17359C17.0735 -0.379278 20.7428 0.078396 22.7401 0.0203626ZM4.07757 44.8772C10.1549 47.3733 14.5372 49.7946 17.1651 56.106C18.3327 58.9098 18.2359 60.4414 18.7717 63.2349C22.1797 63.3494 25.6049 63.2736 29.0147 63.2652L44.2146 63.261L91.6164 63.2643L155.857 63.268L176.822 63.2684C180.913 63.2698 185.015 63.3289 189.103 63.2326C189.269 61.9057 189.382 60.5596 189.699 59.2587C190.675 55.2527 193.149 51.1662 196.417 48.6245C198.724 46.8299 201.509 46.0673 203.919 44.487C203.964 37.4979 203.964 30.5085 203.92 23.5194C197.281 20.2713 192.721 17.1146 190.239 9.86056C189.605 8.00928 189.464 6.17667 189.176 4.26161C187.528 4.05498 185.79 4.14929 184.13 4.15157L176.207 4.17451L175.204 4.16525L18.7605 4.19945C18.1157 10.5387 16.3137 15.1923 11.2631 19.3132C10.2538 20.1463 9.17968 20.8977 8.05107 21.5603C6.95373 22.1985 5.26065 22.7518 4.38922 23.6452C4.07295 23.9694 4.01908 24.3824 3.97543 24.812C3.74321 27.0974 3.94028 29.5826 3.93976 31.8859C3.93878 36.2094 3.84983 40.5582 4.07757 44.8772Z" fill="#151415"/>
<path d="M18.7606 4.19949L175.204 4.16529L176.208 4.17455L184.13 4.15161C185.79 4.14933 187.528 4.05502 189.176 4.26165C189.464 6.17671 189.605 8.00932 190.239 9.86059C192.721 17.1146 197.281 20.2713 203.92 23.5194C203.964 30.5086 203.964 37.4979 203.919 44.4871C201.509 46.0674 198.724 46.83 196.417 48.6245C193.149 51.1663 190.675 55.2528 189.699 59.2588C189.382 60.5597 189.269 61.9057 189.104 63.2327C185.015 63.329 180.913 63.2699 176.822 63.2685L155.857 63.268L91.6164 63.2643L44.2147 63.261L29.0148 63.2652C25.6049 63.2736 22.1797 63.3494 18.7718 63.235C18.236 60.4415 18.3327 58.9098 17.1652 56.1061C14.5373 49.7947 10.155 47.3734 4.07766 44.8772C3.84991 40.5583 3.93887 36.2094 3.93984 31.8859C3.94036 29.5826 3.74329 27.0974 3.97551 24.8121C4.01917 24.3824 4.07304 23.9694 4.3893 23.6452C5.26073 22.7518 6.95381 22.1985 8.05116 21.5604C9.17977 20.8978 10.2538 20.1464 11.2632 19.3132C16.3138 15.1923 18.1158 10.5387 18.7606 4.19949ZM6.73323 25.4736C6.3732 28.4508 6.58606 31.6424 6.6009 34.644C6.61346 37.1889 6.35375 40.1072 6.87178 42.5941C7.93149 43.6328 9.32028 44.1272 10.5827 44.8586C12.7885 46.1367 14.7896 47.8782 16.4467 49.8086C17.9299 51.5366 19.196 53.6778 19.9055 55.8395C20.2307 56.8305 20.6862 59.4747 21.2432 60.2103C21.6363 60.7295 36.9934 60.5797 39.016 60.5592L176.246 60.3503C178.413 60.3531 180.579 60.3689 182.745 60.3991C184.027 60.4154 185.39 60.5248 186.661 60.3759C186.994 58.9414 187.283 57.4679 187.77 56.0768C189.364 51.519 192.684 47.7563 196.755 45.2175C198.19 44.3232 199.817 43.6842 201.177 42.6861C201.624 40.5816 201.376 36.214 201.378 33.8865C201.382 31.1635 201.603 28.2027 201.27 25.5106C200.063 24.5002 198.629 23.9469 197.312 23.1123C194.12 21.0884 191.01 17.7635 189.174 14.4588C188.735 13.687 188.356 12.8826 188.04 12.0527C187.755 11.3145 186.719 7.39656 186.176 7.13098C185.467 6.78477 165.577 6.94101 162.706 6.93352L76.9715 6.83842L44.5488 6.83897C40.3757 6.83502 36.2066 6.95906 32.033 6.88806C30.1426 6.92054 28.2519 6.93929 26.3612 6.94431C25.1478 6.93668 23.8644 6.82325 22.6587 6.95227C22.2077 7.00056 21.6374 7.08631 21.276 7.37818C20.705 8.53359 20.5003 9.84487 20.1654 11.0804C19.9269 11.9601 19.5883 12.8169 19.2288 13.6533C17.5957 17.4524 14.364 20.7756 10.8762 22.9587C9.52248 23.8061 7.99086 24.4891 6.73323 25.4736Z" fill="#F0EFEC"/>
<path d="M175.204 4.16528L176.208 4.17454C176.051 4.22763 175.901 4.29779 175.75 4.3634C175.726 4.73552 175.557 5.06456 175.409 5.40072C175.432 5.05688 175.45 4.71268 175.463 4.36823L175.204 4.16528Z" fill="#D1CDCF"/>
<path d="M32.0329 6.88802C36.2066 6.95902 40.3756 6.83498 44.5487 6.83894L76.9715 6.83838L162.706 6.93348C165.577 6.94097 185.467 6.78473 186.175 7.13094C186.718 7.39652 187.755 11.3144 188.04 12.0526C188.356 12.8825 188.735 13.687 189.174 14.4588C191.01 17.7634 194.12 21.0884 197.312 23.1122C198.628 23.9469 200.063 24.5002 201.27 25.5106C201.603 28.2027 201.382 31.1635 201.378 33.8865C201.376 36.2139 201.624 40.5815 201.177 42.6861C199.817 43.6842 198.19 44.3231 196.755 45.2175C192.684 47.7563 189.364 51.5189 187.77 56.0767C187.283 57.4679 186.994 58.9414 186.661 60.3758C185.39 60.5247 184.027 60.4154 182.745 60.3991C180.579 60.3689 178.413 60.353 176.246 60.3503L39.016 60.5592C36.9933 60.5796 21.6362 60.7295 21.2431 60.2102C20.6861 59.4746 20.2306 56.8305 19.9054 55.8394C19.1959 53.6778 17.9298 51.5366 16.4466 49.8086C14.7896 47.8782 12.7884 46.1367 10.5826 44.8586C9.32021 44.1272 7.93142 43.6327 6.87172 42.5941C6.35368 40.1072 6.6134 37.1888 6.60084 34.6439C6.58599 31.6424 6.37313 28.4507 6.73316 25.4736C7.99079 24.489 9.52242 23.8061 10.8761 22.9587C14.3639 20.7756 17.5956 17.4524 19.2287 13.6532C19.5883 12.8168 19.9268 11.96 20.1653 11.0804C20.5002 9.84483 20.705 8.53355 21.2759 7.37814C21.6373 7.08628 22.2076 7.00053 22.6586 6.95223C23.8643 6.82321 25.1477 6.93664 26.3611 6.94427C28.2518 6.93925 30.1425 6.9205 32.0329 6.88802ZM12.1871 30.8505C11.4082 30.8666 10.7635 30.8087 10.1663 31.4079C10.1366 31.4377 10.1188 31.4619 10.1028 31.5006C10.1653 31.6504 10.16 31.7182 10.3122 31.7813C11.5886 32.3099 44.8251 31.6877 48.7718 31.6444C54.5123 31.5813 60.2635 31.5376 66.0041 31.574C66.9262 31.5494 67.8596 31.5447 68.7627 31.3343C64.21 31.0244 59.6103 31.0493 55.0474 31.0398L38.3539 31.015L20.0344 30.9119C17.4293 30.8982 14.7886 30.7675 12.1871 30.8505ZM125.571 48.8017C126.649 48.8915 127.788 48.8217 128.872 48.8245L135.463 48.8352C140.536 48.825 145.613 48.9264 150.686 48.9567L173.723 49.0972C177.82 49.1297 181.969 49.3173 186.059 49.1814C186.727 49.1591 187.534 49.0721 188.114 48.7189L188.095 48.5663C187.601 48.3202 186.996 48.2997 186.452 48.2783C183.942 48.1792 181.405 48.2476 178.893 48.2499C173.742 48.242 168.593 48.2657 163.443 48.3211L126.269 48.3909L126.234 48.4007C124.812 48.7938 123.186 48.3323 121.743 48.5947C122.879 48.6408 124.511 48.4612 125.571 48.8017ZM162.602 10.3125C161.816 10.3034 161.03 10.3018 160.243 10.3077L160.158 10.578L160.028 10.5492L160.011 10.3335L159.903 10.5131L159.901 10.3562L159.794 10.4538L160.019 10.5333L160.025 10.3152L160.09 10.3039L160.19 10.5633C160.983 10.6247 161.841 10.7074 162.635 10.6844L162.239 10.4944L162.602 10.3125ZM105.781 57.3576C105.658 56.924 105.082 55.9102 104.684 55.7003C104.637 55.6761 104.597 55.6608 104.547 55.6482C104.689 56.1558 105.05 57.0226 105.539 57.2836C105.615 57.3241 105.696 57.3441 105.781 57.3576ZM119.392 11.5079C119.212 11.1718 118.929 10.9031 118.557 10.7869C118.511 10.7724 118.464 10.7629 118.417 10.7548C118.598 11.0551 118.789 11.3954 119.158 11.4862C119.235 11.5053 119.313 11.5091 119.392 11.5079ZM76.1503 54.8186C76.0833 55.1815 76.0186 55.3486 76.1591 55.7027C76.2885 55.7608 76.4206 55.8311 76.556 55.8729C76.5848 55.5528 76.6188 55.3048 76.4518 55.0136L76.1503 54.8186ZM134.018 50.808C133.986 50.5074 133.938 50.2576 133.683 50.0645C133.524 49.9435 133.311 49.8532 133.111 49.8332C133.246 50.1668 133.381 50.5735 133.738 50.727C133.828 50.7661 133.922 50.7889 134.018 50.808ZM80.6941 39.871C80.5755 39.5739 80.3847 39.189 80.0758 39.0548C80.0116 39.0269 79.9455 39.0085 79.8785 38.9897C79.8571 38.9837 79.8362 38.9773 79.8148 38.9715C79.7715 38.9595 79.7287 38.9501 79.684 38.942C79.7594 39.2669 79.7929 39.4011 80.0841 39.6044C80.24 39.713 80.5122 39.8279 80.6941 39.871ZM92.1314 51.7595C92.3329 51.9772 92.9363 52.5062 93.2281 52.5207C93.2592 52.522 93.2741 52.5207 93.3035 52.5188C93.2579 52.1936 93.2057 52.0321 92.9661 51.8037C92.6539 51.679 92.4567 51.6897 92.1314 51.7595ZM92.9801 27.154C92.8489 27.5858 92.6995 28.1042 92.9163 28.5308L93.1215 28.6185C93.29 28.2382 93.3556 27.8707 93.1974 27.4718C93.1467 27.3434 93.102 27.2273 92.9801 27.154Z" fill="#151415"/>
<path d="M143.716 41.5034L177.61 41.2457C183.062 41.2128 188.578 40.9797 194.022 41.1942C194.393 41.2089 195.035 41.1681 195.319 41.426C195.156 41.7558 194.803 42.0139 194.448 42.1323C193.124 42.5739 178.204 42.2508 175.482 42.2442L158.167 42.2374C153.7 42.2453 149.175 42.3146 144.716 42.0653C144.445 41.7927 143.274 41.8438 142.824 41.7111L143.716 41.5034Z" fill="#F0EFEC"/>
<path d="M134.535 38.135C148.12 37.9437 161.708 37.8907 175.295 37.9762L188.854 37.9486C191.296 37.935 193.769 37.8202 196.208 37.916C196.616 37.932 197.024 37.9666 197.398 38.1404C197.537 38.3689 197.453 38.5082 197.403 38.7648C197.122 38.9902 196.778 38.9847 196.422 38.986C193.052 38.998 189.667 38.8465 186.294 38.83L152.656 38.6234C145.143 38.5451 137.553 38.8272 130.05 38.4681C130.617 38.0203 133.611 38.2828 134.535 38.135Z" fill="#F0EFEC"/>
<path d="M141.832 34.5217C145.264 34.423 148.708 34.4857 152.142 34.4696L174.742 34.4313L189.806 34.4228C192.174 34.4232 194.583 34.3199 196.944 34.4253C197.094 34.432 197.231 34.483 197.366 34.5448C197.519 34.7885 197.477 34.8811 197.456 35.162C197.163 35.3604 196.802 35.3402 196.451 35.348C194.005 35.4029 191.53 35.3183 189.08 35.3181L168.077 35.2208L154.931 35.1292C152.83 35.1139 150.656 35.2263 148.564 35.0854C146.133 35.2536 139.047 35.295 136.87 34.6227C138.502 34.4282 140.191 34.4814 141.832 34.5217Z" fill="url(#paint0_linear_8_4241)"/>
<path d="M136.87 34.6226C138.502 34.4281 140.191 34.4814 141.832 34.5216C141.428 34.5956 141.026 34.65 140.618 34.6939L140.625 34.7954C141.589 34.7746 142.555 34.9271 143.521 34.9499C145.194 34.9893 146.899 34.9127 148.564 35.0854C146.133 35.2536 139.047 35.2949 136.87 34.6226Z" fill="#D1CDCF"/>
<path d="M180.825 30.9667L192.289 30.9233C193.751 30.9208 195.647 30.6704 197.058 30.9952C197.311 31.0534 197.346 31.0634 197.487 31.2884C197.487 31.3794 197.513 31.7072 197.458 31.7589C197.277 31.929 196.931 31.9388 196.693 31.9449C192.538 32.0501 188.316 31.8628 184.153 31.848L151.935 31.6999C148.23 31.6274 144.523 31.5928 140.816 31.5963C138.588 31.5864 136.058 31.8191 133.885 31.32C139.422 31.0142 145.018 31.0339 150.563 31.0349C160.642 31.0369 170.75 31.2141 180.825 30.9667Z" fill="#F0EFEC"/>
<path d="M146.621 44.7784L173.271 44.7161C179.432 44.6788 185.675 44.4431 191.829 44.7386L190.702 45.6766L158.07 45.5586C152.076 45.5181 146.083 45.5966 140.091 45.4412C139.832 45.3662 139.611 45.2633 139.374 45.1367L139.377 45.0114C141.669 44.5558 144.36 45.2818 146.621 44.7784Z" fill="url(#paint1_linear_8_4241)"/>
<path d="M12.1869 30.8507C14.7884 30.7676 17.4291 30.8983 20.0341 30.912L38.3537 31.0151L55.0472 31.0399C59.6101 31.0494 64.2098 31.0245 68.7625 31.3344C67.8594 31.5448 66.926 31.5495 66.0039 31.5742C60.2633 31.5378 54.5121 31.5815 48.7716 31.6445C44.8249 31.6878 11.5884 32.31 10.312 31.7814C10.1598 31.7184 10.1651 31.6505 10.1025 31.5008C10.1186 31.462 10.1364 31.4379 10.1661 31.408C10.7633 30.8088 11.408 30.8668 12.1869 30.8507Z" fill="url(#paint2_linear_8_4241)"/>
<path d="M146.981 27.7793C152.176 27.7117 195.697 26.9676 197.383 27.6464C197.522 27.892 197.52 27.9311 197.458 28.2063C197.214 28.3942 197.108 28.397 196.807 28.4094C194.317 28.5121 191.78 28.3775 189.285 28.3769L172.697 28.361C164.94 28.3925 157.183 28.3638 149.427 28.275C147.835 28.2457 146.233 28.297 144.644 28.2352C144.256 27.9945 143.712 28.1845 143.259 28.0385C143.992 27.6167 146 27.9232 146.911 27.7901L146.981 27.7793Z" fill="url(#paint3_linear_8_4241)"/>
<path d="M65.6267 28.2238C60.4347 28.4581 55.1567 28.228 49.954 28.2578C42.1968 28.362 34.439 28.4031 26.6812 28.3812C24.0204 28.3981 12.0208 28.7497 10.2652 28.1493L10.1904 27.9409C10.59 27.5568 11.5449 27.4568 12.0743 27.4233C13.6428 27.3237 15.2904 27.4615 16.8649 27.4789C19.7442 27.4983 22.6236 27.501 25.5029 27.4871L61.5747 27.6787C62.5983 27.9771 63.7103 27.6894 64.7455 27.8917C65.0326 27.9477 65.3424 28.1282 65.6267 28.2238Z" fill="url(#paint4_linear_8_4241)"/>
<path d="M126.269 48.391L163.443 48.3212C168.593 48.2658 173.742 48.2421 178.893 48.25C181.405 48.2477 183.942 48.1793 186.452 48.2784C186.996 48.2998 187.601 48.3203 188.095 48.5664L188.114 48.719C187.534 49.0721 186.727 49.1592 186.059 49.1815C181.969 49.3173 177.82 49.1298 173.723 49.0973L150.686 48.9568C145.613 48.9265 140.536 48.8251 135.463 48.8353L128.872 48.8246C127.788 48.8218 126.649 48.8916 125.571 48.8018C124.511 48.4612 122.879 48.6408 121.743 48.5948C123.185 48.3324 124.812 48.7939 126.234 48.4008L126.269 48.391Z" fill="url(#paint5_linear_8_4241)"/>
<path d="M75.0365 21.2425C71.3688 21.3851 67.6587 21.2773 63.9877 21.2763L41.8834 21.2842L27.2119 21.3442C25.5255 21.3624 20.153 21.6659 18.7935 21.3088C18.5752 21.2514 18.5551 21.2479 18.4404 21.0573C18.4672 21.0244 18.4934 20.9926 18.5234 20.9626C18.7957 20.6896 19.1833 20.6231 19.5509 20.5966C21.8679 20.4292 24.2909 20.5374 26.617 20.5397L39.1209 20.5519C50.4846 20.5645 61.8712 20.4442 73.2332 20.6827C73.4458 20.7296 73.7463 20.7595 73.9278 20.8764L73.0103 21.0792C73.6519 21.0974 74.441 21.0131 75.0365 21.2425Z" fill="url(#paint6_linear_8_4241)"/>
<path d="M122.562 55.3248C135.481 54.9735 148.448 55.0722 161.373 55.0484L176.355 55.0545C178.636 55.0587 180.998 54.9233 183.27 55.0568C183.497 55.0703 183.7 55.1299 183.905 55.2266L184.078 55.4216C183.97 55.6207 183.917 55.6403 183.699 55.7031C182.559 56.0302 175.179 55.7957 173.494 55.7971L139.229 55.7384C135.726 55.7519 132.222 55.745 128.72 55.7175C127.23 55.7105 125.591 55.8389 124.121 55.6863C123.607 55.4872 122.99 55.7394 122.562 55.3248Z" fill="#F0EFEC"/>
<path d="M63.0941 24.6087C60.5998 24.7358 58.0589 24.5964 55.5567 24.6339C49.2513 24.7284 42.9569 24.8421 36.6501 24.8516L22.9165 24.8796C20.5663 24.8871 18.1928 24.9823 15.8456 24.8967C15.4168 24.8811 14.9382 24.8681 14.5596 24.6468L14.5781 24.4599C15.0559 24.1529 15.7074 24.1335 16.259 24.1066C18.3793 24.0033 20.5292 24.0718 22.6527 24.0693C27.2079 24.0553 31.7632 24.0711 36.3182 24.1166L73.0877 24.1942C74.7994 24.1845 77.3779 23.9848 78.985 24.4403C75.8709 24.6895 72.7452 24.6236 69.6233 24.6262C67.4649 24.6279 65.2469 24.727 63.0941 24.6087Z" fill="url(#paint7_linear_8_4241)"/>
<path d="M73.0878 24.1941C74.7995 24.1845 77.3781 23.9848 78.9851 24.4403C75.8711 24.6895 72.7454 24.6236 69.6234 24.6261C67.465 24.6279 65.2471 24.727 63.0942 24.6087C64.2649 24.3555 65.7058 24.5013 66.9137 24.4959C69.7737 24.4831 72.6425 24.5212 75.5016 24.4544L75.4909 24.356C74.747 24.3488 73.8267 24.4417 73.1195 24.2051C73.1088 24.2015 73.0985 24.1978 73.0878 24.1941Z" fill="#AAA9A8"/>
<path d="M79.8302 10.761C75.9694 10.6925 72.0881 10.7778 68.2245 10.775L38.1377 10.7903C33.967 10.7842 29.7367 10.9703 25.5732 10.8238C25.2212 10.8114 24.8041 10.809 24.4883 10.6376L24.4885 10.4326C24.8409 10.1071 25.6887 10.092 26.1448 10.076C27.9134 10.0138 29.7063 10.1413 31.4782 10.1345L49.4419 10.1823L90.9367 10.3275C90.5259 10.5934 90.0602 10.4752 89.6288 10.6615L84.4052 10.7321C83.6352 10.7434 82.7084 10.6654 81.9556 10.8032C81.7783 10.842 81.5982 10.8943 81.4191 10.9215C80.845 11.0086 80.4704 11.7457 79.9033 11.9307C79.692 11.6556 79.8083 11.0948 79.8302 10.761Z" fill="#F0EFEC"/>
<path d="M79.8299 10.761L81.9553 10.8032C81.778 10.842 81.598 10.8943 81.4188 10.9215C80.8447 11.0086 80.4701 11.7457 79.903 11.9307C79.6917 11.6556 79.8081 11.0948 79.8299 10.761Z" fill="#222223"/>
<path d="M143.95 24.1966L174.519 24.1214C178.558 24.0806 182.597 24.0696 186.636 24.0883C188.472 24.0864 190.38 23.9412 192.207 24.0687C192.762 24.1075 193.303 24.1821 193.713 24.5915C193.794 24.672 193.788 24.7429 193.808 24.8529C192.511 25.2367 190.116 24.9058 188.716 24.8951L180.846 24.8795C170.632 24.8965 160.419 24.8202 150.207 24.6509C147.739 24.6052 145.253 24.6936 142.788 24.5978C139.261 24.762 135.663 24.5667 132.125 24.6039L131.742 24.2934C133.299 24.1776 134.887 24.2243 136.449 24.2102C138.949 24.1708 141.45 24.1663 143.95 24.1966Z" fill="#F0EFEC"/>
<path d="M131.742 24.2935C133.299 24.1778 134.887 24.2244 136.449 24.2104C138.949 24.171 141.45 24.1665 143.95 24.1968L143.914 24.2065C142.313 24.6331 139.093 24.2682 137.265 24.3789C138.762 24.5361 141.592 24.1732 142.788 24.598C139.261 24.7622 135.663 24.5669 132.125 24.6041L131.742 24.2935Z" fill="#D1CDCF"/>
<path d="M12.2324 41.3266C16.7241 41.1367 21.2578 41.2574 25.7527 41.2904L47.2613 41.507C49.1424 41.3916 54.4139 41.3361 56.1387 41.6263C53.3628 42.2564 49.6109 42.3363 46.7527 42.1845C44.0649 42.2833 41.3524 42.2129 38.6615 42.2243C33.9988 42.2752 29.3359 42.298 24.673 42.2928L18.0205 42.2994C16.6205 42.2996 15.1249 42.3892 13.7421 42.171C13.2446 42.0926 12.6541 41.609 12.2324 41.3266Z" fill="#F0EFEC"/>
<path d="M47.261 41.5067C49.1421 41.3914 54.4136 41.3358 56.1384 41.626C53.3626 42.2561 49.6106 42.336 46.7524 42.1842C47.6644 42.0675 48.6131 41.9011 49.5334 41.9076C50.1126 41.9117 50.5858 42.1563 51.1572 41.8831C50.992 41.7094 47.9259 41.6486 47.261 41.5067Z" fill="#AAA9A8"/>
<path d="M71.2157 14.2435C67.0702 14.3901 62.8925 14.3051 58.7432 14.3217C47.5134 14.3666 36.2565 14.2371 25.0308 14.4589C24.5311 14.4688 23.6328 14.5778 23.2529 14.2125L23.3097 13.9871C23.7568 13.625 24.3625 13.6587 24.9291 13.6287C27.1829 13.509 29.4646 13.583 31.7228 13.5849L43.4074 13.5944L56.468 13.6635C61.1207 13.6617 65.7581 13.5806 70.4113 13.7202C70.8277 13.8195 71.246 13.9358 71.6708 13.991L71.3911 13.9679C71.4958 13.9851 71.6433 13.9901 71.7215 14.0636C71.5465 14.1066 71.3479 14.1199 71.2157 14.2435Z" fill="url(#paint8_linear_8_4241)"/>
<path d="M180.903 51.6213C182.274 51.5757 184.482 51.3785 185.778 51.7237L185.918 51.8786C185.589 52.2578 184.892 52.343 184.419 52.3769C181.26 52.6031 177.959 52.3983 174.788 52.3853L138.358 52.323C138.572 52.2741 138.77 52.2173 138.974 52.1359C138.844 51.8917 138.397 51.8154 138.134 51.72C145.589 51.5418 153.09 51.7107 160.551 51.6986C167.329 51.6879 174.128 51.4822 180.903 51.6213Z" fill="#D1CDCF"/>
<path d="M180.904 51.6213C182.274 51.5757 184.482 51.3785 185.778 51.7237L185.918 51.8786C185.589 52.2578 184.892 52.343 184.419 52.3769C181.261 52.6031 177.959 52.3983 174.789 52.3853C174.624 52.2401 174.337 52.2574 174.117 52.2332C177.263 51.9475 180.545 52.1522 183.708 52.1266L183.641 52.0201C181.172 51.8419 178.717 51.9605 176.258 51.8144C176.583 51.6223 180.153 51.7311 180.904 51.6213Z" fill="#F0EFEC"/>
<path d="M53.2953 35.1115L24.4317 35.2354L15.896 35.2986C14.2715 35.3065 12.5424 35.4327 10.938 35.1728C10.6903 35.1327 10.2754 35.0685 10.1226 34.858L10.2395 34.7035C10.6414 34.5298 11.0236 34.4413 11.4607 34.4141C12.9428 34.322 14.4828 34.4149 15.9723 34.4123C19.4343 34.4044 22.8963 34.4144 26.3582 34.4424L52.4048 34.5104C52.697 34.6041 53.106 34.6526 53.2525 34.9488C53.28 35.0033 53.286 35.052 53.2953 35.1115Z" fill="url(#paint9_linear_8_4241)"/>
<path d="M53.4682 38.5805C42.7744 38.9153 32.0353 38.783 21.3361 38.791C19.3771 38.7925 11.9155 39.0955 10.6077 38.6638C10.4577 38.6143 10.4566 38.5456 10.3877 38.4114L10.5632 38.1731C10.8512 38.0117 11.089 37.9333 11.4206 37.9143C12.8658 37.8315 14.3551 37.8987 15.8042 37.9004L26.2046 37.9752C35.6347 37.9999 45.0994 37.9269 54.5234 38.2595C54.1758 38.44 53.8041 38.4188 53.4682 38.5805Z" fill="#F0EFEC"/>
<path d="M51.1456 44.7566C52.3115 44.7398 53.4747 44.7211 54.6402 44.7645C55.0008 44.8223 56.057 44.8611 56.2612 45.0877C55.9988 45.2148 55.7341 45.2679 55.4503 45.3254C53.4761 45.42 51.4564 45.528 49.4818 45.4462L29.4558 45.6398L23.0429 45.684C21.5062 45.7082 19.9258 45.824 18.3952 45.7216C17.9003 45.6886 17.2619 45.6095 16.8682 45.2769C16.6801 45.1181 16.6365 45.0799 16.6167 44.8392C17.2056 44.5689 47.9254 44.7317 51.1456 44.7566Z" fill="url(#paint10_linear_8_4241)"/>
<path d="M51.1457 44.7566C52.3117 44.7398 53.4749 44.7211 54.6404 44.7645C55.001 44.8223 56.0572 44.8611 56.2614 45.0877C55.999 45.2148 55.7343 45.2679 55.4504 45.3254C53.4763 45.4199 51.4565 45.528 49.4819 45.4461C50.5958 45.1145 51.6222 45.3398 52.7346 45.1874L52.7402 44.9541C52.3215 44.7934 51.6385 44.8813 51.1457 44.7566Z" fill="#AAA9A8"/>
<path d="M148.134 20.8005C155.087 20.34 162.17 20.5965 169.141 20.5605L180.724 20.528C182.889 20.5184 185.115 20.4038 187.275 20.5302C187.932 20.5687 188.741 20.6491 189.316 20.9914L189.314 21.1671C188.951 21.3208 188.503 21.3508 188.113 21.3667C183.722 21.5462 179.248 21.3613 174.85 21.3529L147.775 21.2442C148.31 20.9893 149.221 21.1217 149.846 21.0001C149.305 20.8792 148.696 20.9057 148.134 20.8005Z" fill="url(#paint11_linear_8_4241)"/>
<path d="M58.8146 17.7537C55.4246 17.8551 52.0198 17.7919 48.6279 17.8036L31.0579 17.8727C29.4406 17.8757 22.5666 18.1774 21.4649 17.8141L21.436 17.6582L21.685 17.3293C22.0104 17.1604 22.3201 17.1021 22.6831 17.0844C23.4834 17.0454 24.2924 17.1466 25.0946 17.139C28.4457 17.1073 31.7855 17.118 35.1367 17.145L52.5157 17.1897C55.8727 17.2036 59.231 17.3017 62.588 17.2632C61.449 17.9094 60.0625 17.48 58.8146 17.7537Z" fill="#F0EFEC"/>
<path d="M54.4864 48.8049L32.7157 48.9683L25.1824 49.0632C24.1446 49.0781 23.0424 49.2181 22.0138 49.1437C21.4305 49.1013 20.4127 48.9669 20.0073 48.4993C20.8185 47.9842 53.7494 48.348 57.6316 48.3704C60.0115 48.2815 62.3951 48.3457 64.7666 48.5625C62.262 49.0087 57.1501 48.9571 54.4864 48.8049Z" fill="#F0EFEC"/>
<path d="M57.6316 48.3705C60.0114 48.2816 62.395 48.3458 64.7665 48.5627C62.262 49.0088 57.15 48.9572 54.4863 48.8051C56.2032 48.4687 59.7723 48.7288 61.7539 48.6203C60.8257 48.3472 58.7026 48.4668 57.6316 48.3705Z" fill="#AAA9A8"/>
<path d="M150.814 13.829L173.52 13.6548C176.67 13.64 179.897 13.4128 183.038 13.5774C183.543 13.6038 184.008 13.6874 184.473 13.8846L184.592 14.0531C184.298 14.3201 183.843 14.3695 183.452 14.3979C182.243 14.4854 180.997 14.4129 179.785 14.4074L173.435 14.4035C165.613 14.4253 157.791 14.3805 149.97 14.2691C149.972 14.2608 149.972 14.252 149.975 14.2444C150.107 13.9633 150.531 13.9172 150.814 13.829Z" fill="url(#paint12_linear_8_4241)"/>
<path d="M51.4955 52.1933C45.432 52.3826 39.3656 52.4543 33.2996 52.4073C29.977 52.4063 26.603 52.5371 23.2857 52.398C22.9107 52.3822 22.7651 52.2621 22.5264 52.0006L22.5474 51.8127C23.4347 51.4665 47.9627 51.728 51.3731 51.7396C51.8737 51.8624 52.3464 51.9764 52.8671 51.9667C52.4502 51.9755 51.87 51.9988 51.4955 52.1933Z" fill="#D1CDCF"/>
<path d="M155.92 17.3023C162.614 17.2151 169.308 17.1662 176.002 17.1557L182.696 17.1279C183.592 17.1252 184.54 17.0411 185.431 17.1C185.807 17.1249 186.278 17.1972 186.561 17.4651C186.629 17.5295 186.687 17.6005 186.745 17.6743L186.692 17.8816C185.265 18.1739 181.965 17.8616 180.286 17.8601L159.152 17.775L159.256 17.6303C158.236 17.5033 156.863 17.6751 155.92 17.3023Z" fill="#F0EFEC"/>
<path d="M42.2982 55.1639C43.3639 55.055 46.6121 55.0466 47.4444 55.5114C46.808 55.9809 31.4478 55.7952 29.3949 55.7962C28.3516 55.8092 25.0084 56.0572 24.2832 55.4682L24.3341 55.3123C25.1259 54.9778 40.0272 55.2202 42.2982 55.1639Z" fill="#F0EFEC"/>
<path d="M140.091 45.4412C135.406 45.5595 130.698 45.4659 126.011 45.4649C123.506 45.4645 120.368 45.6519 117.937 45.4545C117.712 45.4362 117.572 45.4599 117.42 45.2807C117.771 45.0404 118.243 45.0449 118.666 45.0216C122.367 44.8184 126.636 44.9314 130.392 44.9073C135.803 44.8726 141.209 44.7427 146.621 44.7783C144.361 45.2818 141.669 44.5558 139.378 45.0114L139.374 45.1366C139.611 45.2632 139.833 45.3662 140.091 45.4412Z" fill="#AAA9A8"/>
<path d="M162.603 10.3124C164.209 10.3524 165.821 10.2427 167.429 10.2278L177.015 10.1879C178.814 10.1747 180.772 10.0066 182.558 10.1985C182.856 10.2306 183.156 10.2872 183.379 10.504C183.127 10.7889 182.541 10.8044 182.17 10.8262C180.82 10.9053 179.445 10.8025 178.092 10.8116C174.617 10.8618 171.141 10.8567 167.665 10.7964C166.051 10.77 164.214 10.4924 162.635 10.6844L162.239 10.4943L162.603 10.3124Z" fill="#F0EFEC"/>
<path d="M62.5883 17.2631L77.9944 17.3002C80.2705 17.3032 82.6183 17.145 84.8837 17.2409C85.4713 17.2657 86.8322 17.3037 87.2929 17.6319C81.4653 17.9338 75.5754 17.7682 69.74 17.7412C66.1146 17.7243 62.4315 17.9037 58.8149 17.7535C60.0628 17.4799 61.4493 17.9093 62.5883 17.2631Z" fill="#D1CDCF"/>
<path d="M122.415 51.8195C124.256 51.6343 126.13 51.8167 127.978 51.7897C131.203 51.7427 134.97 51.4691 138.134 51.7199C138.397 51.8153 138.844 51.8916 138.974 52.1359C138.77 52.2173 138.572 52.2741 138.358 52.3229C137.412 52.5644 135.91 52.3843 134.909 52.389C132.016 52.402 129.064 52.5202 126.177 52.3406C124.944 52.2638 123.599 52.1889 122.415 51.8195Z" fill="#AAA9A8"/>
<path d="M70.4111 13.7202L82.3565 13.8066C84.0762 13.8229 85.7986 13.772 87.5173 13.8291L87.5532 13.8378C88.1752 13.983 89.029 13.7651 89.5729 14.0267C89.5259 14.1893 89.5087 14.1926 89.3682 14.2912C83.3206 14.2747 77.2613 14.3808 71.2156 14.2436C71.3477 14.1199 71.5464 14.1066 71.7213 14.0636C71.6432 13.9902 71.4957 13.9851 71.391 13.9679L71.6706 13.991C71.2458 13.9358 70.8276 13.8196 70.4111 13.7202Z" fill="#D1CDCF"/>
<path d="M144.261 17.3154L152.177 17.2743C153.39 17.2716 154.723 17.1618 155.921 17.3024C156.863 17.6752 158.236 17.5035 159.257 17.6304L159.152 17.7751C155.722 17.825 152.286 17.7856 148.856 17.7699C146.642 17.7597 144.354 17.867 142.154 17.6133C141.672 17.6761 140.997 17.4538 140.513 17.3574C141.764 17.2838 143.009 17.2892 144.261 17.3154Z" fill="#D1CDCF"/>
<path d="M140.513 17.3576C141.764 17.284 143.009 17.2894 144.261 17.3155C143.59 17.5764 142.744 17.2898 142.154 17.6135C141.672 17.6763 140.997 17.4539 140.513 17.3576Z" fill="#898886"/>
<path d="M144.645 28.2351C143.739 28.4039 127.212 28.3697 126.477 28.1138L126.553 28C127.61 27.7149 132.502 27.8864 133.917 27.8715C138.228 27.8261 142.684 27.4879 146.981 27.7793L146.911 27.7901C146 27.9232 143.992 27.6167 143.259 28.0385C143.712 28.1845 144.256 27.9945 144.645 28.2351Z" fill="#AAA9A8"/>
<path d="M73.2331 20.6825C75.533 20.6672 77.8882 20.6025 80.1815 20.7859C82.2882 20.47 85.1757 20.9693 87.4235 20.9027L87.5812 21.0413C87.5347 21.085 87.4565 21.1834 87.4034 21.2095C86.9689 21.424 82.3418 21.3269 81.5215 21.3028C81.3656 21.2983 81.2093 21.2826 81.0548 21.2639C79.1183 21.411 76.9795 21.3222 75.0365 21.2424C74.441 21.013 73.6519 21.0973 73.0103 21.0791L73.9278 20.8763C73.7463 20.7594 73.4458 20.7294 73.2331 20.6825Z" fill="#AAA9A8"/>
<path d="M80.1812 20.7859C82.2879 20.4699 85.1754 20.9693 87.4231 20.9026L87.5808 21.0413C87.5343 21.085 87.4561 21.1833 87.4031 21.2095C86.9685 21.424 82.3414 21.3269 81.5211 21.3028C81.3653 21.2983 81.2089 21.2825 81.0545 21.2638C81.5546 21.0663 82.6629 21.2956 82.9914 21.0519C82.1181 20.9332 81.0615 20.9932 80.2337 20.7988C80.2161 20.7947 80.1984 20.7902 80.1812 20.7859Z" fill="#706F6F"/>
<path d="M124.12 55.6864C122.512 55.8516 107.05 55.8456 106.691 55.5617C108.777 55.17 111.823 55.3296 114.006 55.3165C116.843 55.2998 119.731 55.1872 122.562 55.3249C122.989 55.7395 123.606 55.4873 124.12 55.6864Z" fill="#D1CDCF"/>
<path d="M52.4048 34.5106C53.7308 34.506 61.4018 34.2485 62.1052 34.789C61.0053 35.3905 54.747 35.2781 53.2953 35.1117C53.286 35.0522 53.28 35.0034 53.2525 34.949C53.1059 34.6528 52.697 34.6042 52.4048 34.5106Z" fill="#AAA9A8"/>
<path d="M140.618 13.6277C142.095 13.6498 143.39 13.6826 144.802 14.1833C142.587 14.4962 140.107 14.2888 137.862 14.2857C136.334 14.3496 134.862 14.3922 133.345 14.1727C135.669 13.7542 138.251 13.7801 140.618 13.6277Z" fill="#706F6F"/>
<path d="M101.018 10.372C102.047 10.2239 112.679 10.1433 113.773 10.3908L113.714 10.4975C112.053 10.7324 102.7 10.9554 101.229 10.6178C101.117 10.5921 101.076 10.4679 101.018 10.372Z" fill="#D1CDCF"/>
<path d="M112.344 48.5179C116.984 48.3643 121.627 48.322 126.269 48.3909L126.234 48.4006C124.812 48.7938 123.186 48.3322 121.743 48.5947C122.879 48.6407 124.511 48.4611 125.571 48.8017C123.223 48.8212 120.875 48.8278 118.526 48.8212C116.524 48.8208 114.291 49.005 112.344 48.5179Z" fill="#D1CDCF"/>
<path d="M138.73 21.1797C141.221 20.5983 145.513 20.6626 148.134 20.8004C148.697 20.9056 149.305 20.8791 149.847 21C149.221 21.1216 148.311 20.9892 147.776 21.2441C146.841 21.4066 145.69 21.2856 144.732 21.2795C142.736 21.2668 140.723 21.2989 138.73 21.1797Z" fill="#AAA9A8"/>
<path d="M87.5176 13.829C88.8804 13.7906 96.0442 13.3225 96.7216 14.0293C96.7356 14.0439 96.7481 14.0598 96.7616 14.0751C96.0693 14.4965 90.5702 14.27 89.3684 14.2911C89.5089 14.1925 89.5262 14.1892 89.5731 14.0266C89.0292 13.765 88.1755 13.9829 87.5534 13.8377L87.5176 13.829Z" fill="url(#paint13_linear_8_4241)"/>
<path d="M61.5747 27.6787C63.6526 27.6509 65.7845 27.5954 67.8545 27.7853C69.4453 27.7855 71.11 27.6986 72.6863 27.9319C71.4013 28.2621 69.9133 28.4338 68.5896 28.2776C67.6121 28.2116 66.609 28.2501 65.6268 28.2238C65.3425 28.1282 65.0326 27.9477 64.7455 27.8917C63.7103 27.6894 62.5983 27.977 61.5747 27.6787Z" fill="#AAA9A8"/>
<path d="M67.8545 27.7854C69.4453 27.7857 71.11 27.6988 72.6863 27.932C71.4013 28.2622 69.9133 28.4339 68.5896 28.2778L69.1949 28.165L69.2945 28.0132C69.3871 28.0203 69.4783 28.0263 69.5709 28.0253C69.007 27.9804 68.4375 27.9528 67.8908 27.7961L67.8545 27.7854Z" fill="#898886"/>
<path d="M130.398 31.5011C128.137 31.4806 121.773 31.9405 119.934 31.3783C120.877 31.2046 121.901 31.2461 122.859 31.2203C125.418 31.1514 127.931 31.1683 130.49 31.2656L130.398 31.5011Z" fill="#AAA9A8"/>
<path d="M51.373 51.7394C53.9041 51.6794 56.6353 51.5375 59.1389 51.9279C56.7079 52.3983 53.9646 52.4187 51.4954 52.1931C51.87 51.9986 52.4502 51.9753 52.867 51.9665C52.3464 51.9763 51.8737 51.8623 51.373 51.7394Z" fill="#AAA9A8"/>
<path d="M137.342 41.5241C139.432 41.4811 141.639 41.3401 143.716 41.5034L142.824 41.7111C143.274 41.8438 144.445 41.7927 144.716 42.0653C143.16 42.0795 138.487 42.2414 137.237 41.7217L137.342 41.5241Z" fill="#AAA9A8"/>
<path d="M64.8976 44.802C65.6235 44.7635 66.4805 44.6966 67.1668 44.9649C66.641 45.4664 64.659 45.436 63.9555 45.4715C63.3808 45.478 62.7164 45.5288 62.1521 45.4259C61.9003 45.38 61.8534 45.3408 61.7119 45.1392C62.1381 44.6849 64.229 44.8555 64.8976 44.802Z" fill="#706F6F"/>
<path d="M132.586 41.706C130.446 41.8341 127.455 42.2165 125.414 41.6748L125.441 41.5851C127.027 41.2853 130.88 41.3033 132.524 41.4857L132.586 41.706Z" fill="#898886"/>
<path d="M115.609 51.7683C116.966 51.7408 118.693 51.5338 119.991 51.9241L119.985 51.9586L119.58 52.0823L119.69 52.0814C119.217 52.208 118.637 52.1903 118.146 52.2242C117.401 52.2875 114.867 52.5081 114.377 52.1396C114.638 51.8725 115.23 51.846 115.609 51.7683Z" fill="#706F6F"/>
<path d="M130.05 38.4681C129.297 38.5471 124.339 38.67 123.888 38.3902C125.022 37.9683 133.052 38.0485 134.535 38.135C133.611 38.2828 130.617 38.0203 130.05 38.4681Z" fill="#AAA9A8"/>
<path d="M135.606 21.1379C134.4 21.256 132.946 21.4113 131.748 21.2106C131.527 21.1737 131.429 21.176 131.294 20.9891C131.33 20.9542 131.366 20.9206 131.405 20.889C132.304 20.1605 134.667 20.6588 135.755 20.783L135.606 21.1379Z" fill="#706F6F"/>
<path d="M103.615 13.7485C104.922 13.7436 106.22 13.8262 107.505 14.063C106.533 14.3188 105.59 14.3058 104.595 14.3006C103.714 14.26 102.176 14.5736 101.412 14.2442L101.509 14.0719C102.1 13.7139 102.939 13.7727 103.615 13.7485Z" fill="#706F6F"/>
<path d="M101.763 51.7804C102.946 51.659 107.023 51.4431 107.994 51.8967L107.985 52.0475C106.566 52.1345 103.111 52.4234 101.872 52.0019L101.763 51.7804Z" fill="#706F6F"/>
<path d="M119.087 25.7202C119.233 25.7378 119.326 25.7888 119.453 25.8606L119.439 26.083C119.402 26.1146 119.365 26.1468 119.33 26.1797C118.895 26.5784 118.469 27.4996 118.607 28.1116C118.661 28.355 118.842 28.3618 118.829 28.6732C118.396 28.8427 118.052 28.9994 117.704 29.3137L117.672 29.3425C117.58 29.2794 117.507 29.172 117.436 29.0861C117.671 28.489 117.751 27.893 118.061 27.315C118.385 26.7135 118.838 26.3994 119.087 25.7202Z" fill="#222223"/>
<path d="M92.6709 17.3888C94.3268 17.0653 96.0604 17.1313 97.6186 17.7728C96.7709 17.8307 93.7122 18.0473 92.9961 17.9076L92.6709 17.3888Z" fill="#454444"/>
<path d="M51.5728 55.258C52.4005 55.2361 53.2319 55.2073 54.0597 55.238C54.5431 55.2561 55.4973 55.2119 55.8305 55.5716C55.7402 55.5939 55.6844 55.6386 55.6123 55.693L55.5816 55.7167L55.5704 55.6023L55.4811 55.7177L55.2759 55.7056C54.1983 55.7126 51.825 55.9377 50.9116 55.5572L50.9958 55.4087L51.5728 55.258Z" fill="#AAA9A8"/>
<path d="M96.7069 55.3253C98.1144 55.3249 99.8014 55.169 101.151 55.5822L101.165 55.651C99.5939 55.88 97.8706 55.732 96.2798 55.6887L96.7069 55.3253Z" fill="#AAA9A8"/>
<path d="M54.6401 44.7645C55.5372 44.7573 58.2702 44.5318 58.9779 45.1024C58.5307 45.5236 56.1281 45.3356 55.4502 45.3255C55.734 45.2679 55.9987 45.2148 56.2611 45.0878C56.0569 44.8612 55.0007 44.8223 54.6401 44.7645Z" fill="#898886"/>
<path d="M119.986 21.342C120.351 21.4987 120.685 21.648 121.008 21.8843L121.009 22.0667L120.396 22.5377C120.209 22.9823 120.609 23.2578 120.724 23.7336C120.591 23.8158 120.582 23.8133 120.426 23.7944C119.236 21.8564 120.095 23.0093 119.989 21.3862L119.986 21.342Z" fill="#222223"/>
<path d="M85.5746 48.7812C85.763 48.8911 86.0096 49.367 86.1087 49.5666C86.2432 49.836 86.3246 49.9914 86.2222 50.2836L85.9263 50.379C85.6146 50.178 85.1484 49.9589 84.9995 49.6062C85.0916 49.2107 85.2977 49.0655 85.5746 48.7812Z" fill="#222223"/>
<path d="M104.333 43.1895C105.142 43.3383 105.868 43.3568 106.631 43.714L106.628 44.0074C106.571 44.0183 106.515 44.0282 106.457 44.0344C106.016 44.082 104.58 43.8739 104.262 43.6182L104.333 43.1895Z" fill="#222223"/>
<path d="M102.307 32.0393L102.457 32.2486C102.375 32.5139 102.413 32.7092 102.434 32.9794C102.456 33.2591 102.535 33.4601 102.347 33.6806L102.02 33.5351C101.753 33.5112 101.497 33.519 101.296 33.3189C101.411 32.8943 102.011 32.4 102.307 32.0393Z" fill="#222223"/>
<path d="M117.803 21.8806L118.131 21.9696C118.312 22.217 118.038 22.3752 118.101 22.7162C118.438 23.113 118.725 23.1381 119.14 23.3838C119.378 23.5251 119.359 23.6576 119.415 23.9119C119.397 23.9073 119.381 23.9029 119.363 23.898C118.737 23.7197 117.856 23.2129 117.541 22.6302C117.539 22.2487 117.585 22.2003 117.803 21.8806Z" fill="#222223"/>
<path d="M132.524 41.4857C134.128 41.4802 135.738 41.4723 137.341 41.5241L137.237 41.7217C136.24 41.4393 133.836 41.788 132.586 41.706L132.524 41.4857Z" fill="#222223"/>
<path d="M87.7021 48.4683C88.032 48.4971 88.3168 48.7926 88.6215 48.9191C88.9351 49.0494 89.2822 49.0875 89.5967 49.2108C89.9303 49.3416 89.961 49.4472 90.1002 49.7571C89.6716 49.7394 89.064 49.6594 88.6806 49.4821C88.2763 49.2946 87.8594 48.8893 87.7021 48.4683Z" fill="#222223"/>
<path d="M110.37 27.3892L110.558 27.5661C110.514 27.8761 110.453 28.2412 110.307 28.5198C110.152 28.814 110.032 28.8072 109.727 28.8965L109.341 28.2582C109.395 28.0297 110.125 27.6469 110.37 27.3892Z" fill="#222223"/>
<path d="M85.0235 52.127C85.3678 52.3703 85.2743 52.7555 85.5888 52.937C85.9234 53.1296 86.2793 52.9728 86.5901 53.2911L86.5101 53.5539C86.1825 53.62 85.9136 53.6158 85.607 53.4707C85.2906 53.3208 84.9737 53.1101 84.8565 52.7607C84.7718 52.508 84.9123 52.3526 85.0235 52.127Z" fill="#222223"/>
<path d="M99.9537 21.677C100.18 21.7652 100.21 21.7598 100.315 21.9933C100.081 22.2543 99.7751 22.4056 99.5089 22.6281C99.2256 22.8657 99.2186 23.2059 99.1874 23.5497L99.0483 23.6926L98.8924 23.6201C98.8775 23.4363 98.8659 23.2424 98.9008 23.06C99.0325 22.3741 99.3977 22.0466 99.9537 21.677Z" fill="#222223"/>
<path d="M98.27 26.0719C98.8302 25.9816 99.7812 25.9268 100.326 26.0788L100.477 26.4396C100.462 26.4448 100.446 26.4501 100.43 26.4551C99.9278 26.613 98.82 26.635 98.351 26.3831L98.27 26.0719Z" fill="#222223"/>
<path d="M108.957 34.4438C109.007 34.4446 109.057 34.4465 109.106 34.456C109.31 34.495 110.363 35.0071 110.462 35.1538L110.307 35.2326C110.159 35.3397 109.982 35.4828 109.808 35.5443C109.567 35.6299 109.473 35.6028 109.251 35.5048C109.021 35.197 109.005 34.8133 108.957 34.4438Z" fill="#222223"/>
<path d="M149.97 14.2692C149.129 14.3267 148.288 14.3503 147.454 14.2024C148.165 13.7749 149.986 13.87 150.814 13.8291C150.531 13.9173 150.107 13.9634 149.975 14.2445C149.972 14.2521 149.972 14.261 149.97 14.2692Z" fill="#AAA9A8"/>
<path d="M100.516 41.3718L100.654 41.474C100.685 41.8846 100.658 42.248 100.596 42.6546L100.458 42.7523L100.35 42.5479C100.055 42.4716 99.8018 42.4039 99.5464 42.2282C99.5906 41.9591 100.266 41.5833 100.516 41.3718Z" fill="#222223"/>
<path d="M124.916 17.9495C125.049 17.9822 125.219 18.0118 125.335 18.0843C125.418 18.1359 125.492 18.1944 125.515 18.2897C125.627 18.7467 125.305 19.2732 125.068 19.6483C124.533 19.2875 124.936 18.8403 124.744 18.2507C124.737 18.2299 124.73 18.2093 124.723 18.1885L124.916 17.9495Z" fill="#222223"/>
<path d="M134.828 17.363C135.614 17.3008 137.61 17.0176 138.207 17.4798C137.171 17.5684 135.776 17.8472 134.828 17.363Z" fill="#706F6F"/>
<path d="M103.488 20.8308C103.692 20.8638 103.824 20.9586 103.992 21.072L103.96 21.2372C103.474 21.4167 102.892 21.3959 102.376 21.4955C102.27 21.4954 102.162 21.4485 102.062 21.4171L102.136 21.1361C102.444 20.8999 103.07 20.9937 103.488 20.8308Z" fill="#222223"/>
<path d="M132.125 24.6041C131.756 24.6263 131.331 24.7207 130.969 24.7007C130.714 24.6865 130.366 24.6503 130.193 24.4625C130.276 24.4064 130.36 24.351 130.449 24.3062C130.961 24.048 131.216 24.1157 131.741 24.2935L132.125 24.6041Z" fill="#222223"/>
<path d="M118.844 17.2505C119.093 17.1571 119.167 17.2042 119.419 17.2687C119.527 17.3633 119.655 17.4745 119.706 17.6107C119.791 17.8363 119.812 17.9401 119.71 18.1516C119.429 18.0396 119.369 17.8631 119.211 17.6182C118.695 17.5408 118.177 17.4825 117.659 17.4262C117.882 17.2466 118.534 17.2738 118.844 17.2505Z" fill="#222223"/>
<path d="M73.7754 54.0361C74.1387 54.1157 74.5459 54.1915 74.8627 54.3949C75.2233 54.627 75.2517 54.8438 75.3345 55.2328C74.8967 54.8732 74.1132 54.8927 73.8224 54.5982C73.7093 54.4837 73.7702 54.1957 73.7754 54.0361Z" fill="#222223"/>
<path d="M102.124 34.3674C102.61 34.4192 102.767 34.5185 103.138 34.8334C103.444 35.0943 103.875 35.4203 103.91 35.8461C103.308 35.5972 102.711 35.1133 102.179 34.7319L102.124 34.3674Z" fill="#222223"/>
<path d="M113.719 45.0273C114.002 45.2032 114.05 45.2639 114.16 45.5892C114.299 46.0019 114.379 46.4052 114.178 46.8091C113.94 46.61 113.762 46.4015 113.644 46.1131C113.479 45.7073 113.556 45.4121 113.719 45.0273Z" fill="#222223"/>
<path d="M94.3047 55.3341C95.1129 55.2913 95.8982 55.2774 96.7069 55.3253L96.2798 55.6887L94.408 55.6975L94.3047 55.3341Z" fill="#898886"/>
<path d="M102.901 24.1082C103.007 24.1237 103.121 24.1424 103.219 24.1892C103.435 24.2923 103.704 24.5746 103.773 24.8056C103.895 25.2102 103.743 25.3774 103.548 25.7032L103.33 25.6416C103.213 25.428 102.925 24.3559 102.901 24.1082Z" fill="#222223"/>
<path d="M85.3728 30.6902C85.8185 30.7482 86.3968 30.6261 86.7774 30.7947L86.8249 31.0109L86.6048 31.043C86.32 31.049 86.1842 31.1615 85.926 31.2339C85.6263 31.3178 85.39 31.3316 85.1299 31.1692C85.1578 30.9323 85.2281 30.8747 85.3728 30.6902Z" fill="#222223"/>
<path d="M69.9307 38.2263C70.429 38.1627 71.0292 38.405 71.4242 38.7002C71.474 38.7373 71.4786 38.9058 71.4884 38.9732C71.1148 39.032 70.6225 39.0576 70.2903 38.8479C70.0191 38.6768 69.9944 38.5157 69.9307 38.2263Z" fill="#222223"/>
<path d="M162.635 10.6845C161.841 10.7075 160.983 10.6248 160.19 10.5633L160.09 10.304L160.025 10.3153L160.019 10.5334L159.793 10.4539L159.901 10.3563L159.903 10.5132L160.011 10.3336L160.028 10.5492L160.158 10.578L160.243 10.3078C161.03 10.3019 161.816 10.3034 162.602 10.3126L162.239 10.4945L162.635 10.6845Z" fill="#454444" fill-opacity="0.988235"/>
<path d="M103.114 28.2141C103.692 28.5207 104.205 28.3994 104.829 28.4421L104.894 28.6291L104.753 28.7435C104.25 28.6731 103.679 28.9995 103.195 28.8198C103.048 28.765 103.035 28.6696 102.973 28.5364L103.114 28.2141Z" fill="#222223"/>
<path d="M100.156 38.2361C100.643 38.301 101.115 38.3029 101.606 38.3103L101.666 38.457L101.492 38.7227C101.451 38.749 101.409 38.7742 101.367 38.7983C101.042 38.9821 100.892 38.9501 100.549 38.8525C100.336 38.656 100.197 38.5308 100.156 38.2361Z" fill="#222223"/>
<path d="M112.91 35.3774C113.218 35.4155 113.597 35.3805 113.807 35.6137C113.703 35.9025 113.612 36.1937 113.523 36.4871C113.492 36.4731 113.488 36.472 113.454 36.4533C113.19 36.3057 112.858 35.9322 112.791 35.6376C112.768 35.5412 112.857 35.4584 112.91 35.3774Z" fill="#222223"/>
<path d="M65.2087 34.5686C65.6275 34.5222 66.0616 34.5054 66.4831 34.4951C66.78 34.4878 67.2062 34.4717 67.4244 34.6803L67.3141 34.8604C66.7004 34.8869 65.6238 35.017 65.0952 34.6895L65.2087 34.5686Z" fill="#898886"/>
<path d="M121.331 27.0449C121.726 27.055 122.18 27.0142 122.488 27.2809C122.24 27.5213 121.872 27.5392 121.546 27.5934C121.261 27.5505 121.107 27.7534 120.778 27.6935L120.859 27.4787L120.925 27.6201L120.934 27.3519L121.331 27.0449Z" fill="#454444"/>
<path d="M91.601 40.9475C91.7671 41.0063 91.7708 41.0436 91.8662 41.1957C91.8262 41.7103 91.4 42.1222 91.0301 42.4455L90.6816 42.1441C90.7156 41.8283 91.3982 41.4841 91.601 40.9475Z" fill="#222223"/>
<path d="M82.0879 55.505C82.5694 55.3771 83.3399 55.3236 83.788 55.5609C84.0378 55.8363 83.9997 55.9112 83.9988 56.283L83.7536 56.2537C83.2436 55.7493 82.7193 55.7465 82.0879 55.505Z" fill="#222223"/>
<path d="M66.6665 41.3411C66.8856 41.3786 67.1094 41.4789 67.3104 41.5745C67.6687 41.7452 68.0265 41.9117 68.1614 42.2865C67.7362 42.2489 67.3472 42.2231 66.9531 42.044C66.7107 41.7676 66.7102 41.7101 66.6665 41.3411Z" fill="#222223"/>
<path d="M104.858 37.179C104.951 37.1824 105.003 37.1884 105.087 37.2306C105.457 37.4166 105.878 37.2776 106.2 37.486L106.157 37.825C106.041 37.9182 105.901 37.9862 105.771 38.0591C105.614 38.0215 105.426 37.9761 105.296 37.8751C105.028 37.6668 104.906 37.5125 104.858 37.179Z" fill="#222223"/>
<path d="M115.761 33.9871C116.097 34.0332 116.345 34.0584 116.596 34.3134C116.631 34.5983 116.592 34.6094 116.437 34.8373C116.129 34.812 115.818 34.8147 115.56 34.6231C115.514 34.3101 115.592 34.255 115.761 33.9871Z" fill="#222223"/>
<path d="M90.9368 10.3276C91.6533 10.2491 92.3782 10.3212 93.0952 10.3674C91.9241 10.5923 90.8228 10.7182 89.6289 10.6617C90.0602 10.4754 90.5259 10.5936 90.9368 10.3276Z" fill="#898886"/>
<path d="M145.326 10.3742C146.034 10.3198 146.802 10.2617 147.504 10.367L147.581 10.4936L147.342 10.5965C146.819 10.6349 145.671 10.8158 145.24 10.5022L145.326 10.3742Z" fill="#898886"/>
<path d="M99.875 34.6921C100.193 34.8062 100.419 34.928 100.675 35.1497C100.818 35.5056 100.802 35.5726 100.728 35.9529C100.32 35.7554 99.9904 35.4246 99.7661 35.0364L99.875 34.6921Z" fill="#222223"/>
<path d="M91.8457 43.2766L92.1523 43.4233L92.2193 43.6351C92.0615 44.0502 91.5879 44.3322 91.245 44.5965L91.0203 44.6061C90.9798 44.3545 91.6712 43.595 91.8457 43.2766Z" fill="#222223"/>
<path d="M100.553 32.7155L100.64 32.7043L100.706 32.8572C100.647 32.9316 100.584 33.0033 100.515 33.0693C100.169 33.4016 99.8165 33.4406 99.3651 33.4331C99.2456 33.2774 99.2456 33.1793 99.2498 32.991C99.5177 32.8166 99.9979 32.9893 100.553 32.7155Z" fill="#222223"/>
<path d="M76.0722 35.3909C76.2015 35.4247 76.2536 35.4722 76.3444 35.568C76.1922 36.0257 75.7837 36.3939 75.4613 36.7429C75.2984 36.707 75.2789 36.6711 75.1621 36.548C75.25 36.1487 75.7902 35.6923 76.0722 35.3909Z" fill="#222223"/>
<path d="M115.328 29.2366L115.465 29.3783C115.464 29.8353 114.686 30.6553 114.485 31.1672L114.332 30.9661C114.386 30.3443 114.961 29.7048 115.328 29.2366Z" fill="#222223"/>
<path d="M121.893 14.6533C121.99 14.7229 122.055 14.9394 122.074 15.0552C122.117 15.3141 122.141 15.5104 121.988 15.7208L121.848 15.5623C121.604 15.4382 121.389 15.3103 121.174 15.1415L121.239 14.9606L121.893 14.6533Z" fill="#222223"/>
<path d="M104.593 19.6702C104.925 19.648 105.238 19.6366 105.57 19.6709L105.621 19.846L105.3 20.2705L105.269 20.5627L105.095 20.5594C104.797 20.2758 104.705 20.054 104.593 19.6702Z" fill="#222223"/>
<path d="M104.547 55.6482C104.597 55.6608 104.638 55.6761 104.684 55.7003C105.082 55.9101 105.658 56.924 105.781 57.3576C105.696 57.3441 105.616 57.3241 105.539 57.2836C105.05 57.0226 104.689 56.1558 104.547 55.6482Z" fill="#222223" fill-opacity="0.988235"/>
<path d="M71.0425 35.8735L71.3124 35.9878L71.3133 36.1937C71.0816 36.5361 70.708 36.7471 70.3716 36.9754L70.198 37.0518L70.1543 36.8715C70.3804 36.4746 70.714 36.1837 71.0425 35.8735Z" fill="#222223"/>
<path d="M78.4768 54.8494L78.6062 55.001C78.5834 55.0922 78.5559 55.1848 78.5126 55.2686C78.3214 55.6375 78.1041 55.7953 77.7203 55.9027C77.6226 55.8013 77.5737 55.6924 77.5142 55.5654C77.6444 55.2104 78.1595 55.0211 78.4768 54.8494Z" fill="#222223"/>
<path d="M84.2519 33.4268C84.4385 33.6334 84.4687 33.7638 84.4757 34.0482C84.4845 34.4142 84.4375 34.5905 84.1816 34.8434C84.0402 34.6456 83.9657 34.4455 83.8853 34.2176C83.896 33.876 84.0537 33.6864 84.2519 33.4268Z" fill="#222223"/>
<path d="M92.8789 20.4941C93.2041 20.6252 93.4754 20.9593 93.709 21.2135L93.6913 21.5438C93.38 21.5615 93.2814 21.5729 93.005 21.4297C92.8319 21.124 92.8645 20.8316 92.8789 20.4941Z" fill="#222223"/>
<path d="M130.49 31.2656C131.096 31.2444 131.707 31.2082 132.313 31.249L132.302 31.4448L132.578 31.3489C132.245 31.6223 130.851 31.5026 130.398 31.5011L130.49 31.2656Z" fill="#222223"/>
<path d="M72.9604 29.7476C73.2261 29.7375 73.4653 29.8225 73.6867 29.9691C73.9864 30.1677 74.1339 30.3498 74.2009 30.6976C73.9957 30.6787 73.8058 30.5929 73.6225 30.5046C73.2573 30.3291 73.0917 30.1209 72.9604 29.7476Z" fill="#222223"/>
<path d="M68.5742 41.3752C68.658 41.3856 68.7394 41.4067 68.8134 41.4481C69.2186 41.6733 69.8123 42.3052 69.9207 42.7564C69.8449 42.7444 69.77 42.727 69.6983 42.6983C69.2647 42.5246 68.7557 41.8021 68.5742 41.3752Z" fill="#222223"/>
<path d="M108.377 44.7161C108.477 44.8028 108.531 44.8472 108.565 44.9829C108.635 45.2617 108.529 45.6883 108.379 45.9228C108.217 45.7739 108.067 45.612 107.914 45.4532C107.917 45.11 108.151 44.9618 108.377 44.7161Z" fill="#222223"/>
<path d="M114.501 10.3208C114.845 10.2846 115.178 10.3176 115.493 10.4703C115.875 10.6558 115.961 10.912 116.097 11.281C115.543 11.0819 114.995 10.6437 114.501 10.3208Z" fill="#222223"/>
<path d="M108.972 37.791C109.007 37.9456 108.978 38.1124 108.921 38.2592C108.797 38.5737 108.505 38.7511 108.213 38.8824L108.055 38.5138C108.193 38.1762 108.663 38.0103 108.972 37.791Z" fill="#222223"/>
<path d="M98.143 40.8079C98.3143 40.8661 98.4739 40.9712 98.6316 41.0596C98.8535 41.3621 98.7637 41.7586 98.7325 42.1106C98.6251 41.9927 98.5208 41.872 98.4199 41.7486C98.1537 41.4168 98.0965 41.2233 98.143 40.8079Z" fill="#222223"/>
<path d="M77.1554 33.3787L77.3875 33.4956C77.4476 33.8169 76.9707 34.5593 76.8446 34.936C76.7608 34.869 76.6878 34.7783 76.6143 34.6996C76.6487 34.2536 76.9548 33.7763 77.1554 33.3787Z" fill="#222223"/>
<path d="M113.555 43.668C113.663 43.6819 113.771 43.7042 113.878 43.728C114.429 43.8509 114.679 44.0937 114.972 44.5566C114.963 44.5564 114.954 44.5564 114.944 44.556C114.844 44.5513 114.744 44.5514 114.644 44.5385C114.156 44.4758 113.839 44.0265 113.555 43.668Z" fill="#222223"/>
<path d="M118.982 14.2231C119.035 14.2439 119.093 14.2695 119.136 14.3067C119.415 14.5455 119.739 15.0635 119.752 15.4338C119.471 15.3252 119.254 15.1993 119.015 15.0155C118.883 14.6714 118.91 14.5902 118.982 14.2231Z" fill="#222223"/>
<path d="M117.425 10.708C117.68 10.7686 117.748 10.7577 117.92 10.9648C117.727 11.2418 117.342 11.3072 117.035 11.4024L116.881 11.4895L116.712 11.4167C116.878 11.077 117.125 10.9165 117.425 10.708Z" fill="#222223"/>
<path d="M92.9801 27.1541C93.102 27.2274 93.1467 27.3435 93.1974 27.4718C93.3556 27.8708 93.29 28.2383 93.1216 28.6185L92.9164 28.5308C92.6996 28.1043 92.8489 27.5859 92.9801 27.1541Z" fill="#222223" fill-opacity="0.988235"/>
<path d="M92.9961 17.9078C92.7495 17.8829 92.4731 17.8705 92.2349 17.8016C92.0078 17.7359 91.8831 17.6838 91.7715 17.4815C92.032 17.2848 92.3656 17.3608 92.6709 17.389L92.9961 17.9078Z" fill="#222223"/>
<path d="M123.737 18.0808C123.877 18.1811 123.876 18.1786 123.907 18.3477C123.568 18.5981 123.237 18.8567 122.911 19.1234C122.82 19.0549 122.74 18.961 122.66 18.8801C122.82 18.5567 123.418 18.2884 123.737 18.0808Z" fill="#222223"/>
<path d="M80.9472 48.658C81.1171 48.7482 81.118 48.8236 81.185 48.9962C81.0882 49.3596 80.8128 49.5718 80.5462 49.8165L80.3638 49.6816C80.3182 49.3461 80.7402 48.9478 80.9472 48.658Z" fill="#222223"/>
<path d="M128.403 17.6773C128.599 17.5995 128.822 17.6895 128.91 17.8819C128.997 18.0742 128.918 18.3011 128.73 18.3974C128.6 18.464 128.444 18.4537 128.324 18.3706C128.204 18.2875 128.139 18.1451 128.156 18.0001C128.173 17.8552 128.268 17.7311 128.403 17.6773Z" fill="#222223"/>
<path d="M135.754 20.783C136.153 20.7992 136.624 20.7621 136.973 20.976C136.856 21.132 136.741 21.1226 136.551 21.1483C136.244 21.1902 135.915 21.1557 135.606 21.1379L135.754 20.783Z" fill="#454444"/>
<path d="M111.498 44.052C111.903 44.2327 112.392 44.1739 112.755 44.3942L112.776 44.6812C112.383 44.5999 111.781 44.6922 111.489 44.4021L111.498 44.052Z" fill="#222223"/>
<path d="M84.6035 58.6567C84.9953 58.6343 85.4964 58.511 85.8263 58.7097L85.829 59.0098C85.5015 59.0303 85.0748 59.1047 84.7733 58.9591C84.657 58.9028 84.644 58.7739 84.6035 58.6567Z" fill="#454444"/>
<path d="M92.1313 51.7596C92.4566 51.6898 92.6539 51.6791 92.966 51.8038C93.2057 52.0323 93.2578 52.1937 93.3034 52.519C93.2741 52.5208 93.2592 52.5222 93.228 52.5208C92.9363 52.5064 92.3328 51.9774 92.1313 51.7596Z" fill="#222223" fill-opacity="0.988235"/>
<path d="M98.8373 17.1672C98.9936 17.2134 99.1811 17.3245 99.2988 17.4357C99.5254 17.6494 99.5924 17.774 99.5882 18.0699C99.4956 18.0564 99.4003 18.0407 99.3119 18.0099C98.9699 17.8908 98.8354 17.7353 98.6968 17.4283L98.8373 17.1672Z" fill="#222223"/>
<path d="M110.058 18.6565C110.221 18.6597 110.318 18.7039 110.459 18.7826C110.4 19.0825 110.145 19.2229 109.919 19.4209C109.799 19.4225 109.697 19.364 109.59 19.316C109.631 19.0116 109.849 18.8714 110.058 18.6565Z" fill="#222223"/>
<path d="M61.2749 38.8928C61.354 38.9245 61.4298 39.0003 61.4973 39.0527C61.4056 39.4082 61.1511 39.5943 60.9017 39.8573C60.8035 39.8058 60.7272 39.708 60.6519 39.6278C60.7617 39.2646 60.9934 39.135 61.2749 38.8928Z" fill="#222223"/>
<path d="M54.5235 38.2593C54.7882 38.2579 55.1 38.1899 55.2991 38.3676C54.697 38.6249 54.1089 38.6007 53.4683 38.5804C53.8042 38.4186 54.1759 38.4399 54.5235 38.2593Z" fill="#D1CDCF"/>
<path d="M94.1201 26.9055C94.3267 26.9203 94.5417 26.9855 94.7073 27.1143C94.9655 27.3148 95.0181 27.5773 95.0493 27.8854L94.7408 27.8174C94.4379 27.5376 94.2918 27.2734 94.1201 26.9055Z" fill="#222223"/>
<path d="M79.6841 38.9419C79.7287 38.9499 79.7716 38.9593 79.8148 38.9713C79.8362 38.9772 79.8572 38.9836 79.8786 38.9896C79.9456 39.0084 80.0116 39.0268 80.0758 39.0547C80.3848 39.1889 80.5755 39.5738 80.6942 39.8709C80.5123 39.8278 80.2401 39.7129 80.0842 39.6043C79.793 39.401 79.7595 39.2668 79.6841 38.9419Z" fill="#222223" fill-opacity="0.988235"/>
<path d="M133.111 49.8333C133.311 49.8533 133.524 49.9435 133.684 50.0645C133.938 50.2576 133.986 50.5074 134.018 50.808C133.922 50.7889 133.828 50.7661 133.738 50.727C133.381 50.5735 133.246 50.1669 133.111 49.8333Z" fill="#454444" fill-opacity="0.984314"/>
<path d="M18.7944 50.9946C18.9577 51.0374 19.104 51.1449 19.2243 51.2608C19.4993 51.5255 19.6472 51.7963 19.6625 52.1839L19.4202 52.1299C19.1097 51.8172 18.9648 51.3929 18.7944 50.9946Z" fill="#222223"/>
<path d="M79.9981 31.9939L80.308 32.1812C80.3322 32.5405 80.1721 32.6715 79.9734 32.9582L79.6761 32.811L79.624 32.5966L79.9981 31.9939Z" fill="#222223"/>
<path d="M93.8573 44.1162L93.9983 44.1854L94.0597 44.3927C93.8945 44.6777 93.7182 44.954 93.5395 45.2305L93.3213 45.0338C93.3846 44.6276 93.606 44.4343 93.8573 44.1162Z" fill="#222223"/>
<path d="M76.1504 54.8186L76.4519 55.0136C76.619 55.3048 76.585 55.5528 76.5562 55.8729C76.4208 55.831 76.2886 55.7608 76.1593 55.7026C76.0188 55.3485 76.0834 55.1815 76.1504 54.8186Z" fill="#222223" fill-opacity="0.988235"/>
<path d="M107.973 21.8618C108.175 21.9297 108.276 21.9343 108.407 22.107L107.63 22.3825L107.338 22.337L107.251 22.1794C107.503 21.9489 107.648 21.9326 107.973 21.8618Z" fill="#222223"/>
<path d="M113.026 13.7627C113.118 13.8228 113.188 13.914 113.261 13.9955C113.159 14.3095 112.918 14.4277 112.663 14.6268C112.587 14.6194 112.528 14.5576 112.466 14.5132C112.502 14.2225 112.83 13.9658 113.026 13.7627Z" fill="#222223"/>
<path d="M94.408 55.6976C94.0334 55.7064 93.5681 55.7748 93.228 55.5985C93.4267 55.371 94.0116 55.3728 94.3047 55.3342L94.408 55.6976Z" fill="#706F6F"/>
<path d="M92.1502 26.071C92.2056 26.1167 92.2359 26.2463 92.2638 26.3155C92.1949 26.6343 91.8394 26.8588 91.5998 27.0597C91.511 26.9682 91.5007 26.8772 91.4761 26.755C91.6854 26.5066 91.9116 26.2904 92.1502 26.071Z" fill="#222223"/>
<path d="M102.109 38.5806C102.223 38.5875 102.337 38.5958 102.45 38.6134C102.804 38.6689 102.976 38.7253 103.18 39.0129C102.802 39.0318 102.503 39.1163 102.175 38.9149L102.109 38.5806Z" fill="#222223"/>
<path d="M116.306 39.6001L116.479 39.688C116.438 40.0357 116.208 40.2322 115.993 40.5012L115.769 40.3153C115.806 39.9953 116.081 39.8226 116.306 39.6001Z" fill="#222223"/>
<path d="M74.9004 48.5454L75.0154 48.6422C75.1894 48.9288 75.0265 49.5765 74.9809 49.9105C74.9172 49.8547 74.9391 49.8821 74.8958 49.8119C74.6692 49.4429 74.7981 48.9418 74.9004 48.5454Z" fill="#222223"/>
<path d="M92.95 32.2693L93.1095 32.3542C93.1049 32.6898 92.9025 32.8064 92.681 33.0423L92.4316 32.9283C92.4516 32.6158 92.7224 32.4737 92.95 32.2693Z" fill="#222223"/>
<path d="M115.754 17.6958L116.046 17.8029C115.998 18.0785 115.711 18.2034 115.488 18.3669L115.411 18.4372L115.283 18.4029C115.33 18.1242 115.573 17.9026 115.754 17.6958Z" fill="#222223"/>
<path d="M118.417 10.7549C118.464 10.763 118.511 10.7725 118.558 10.787C118.929 10.9032 119.212 11.1719 119.392 11.508C119.313 11.5091 119.235 11.5054 119.158 11.4863C118.789 11.3955 118.598 11.0552 118.417 10.7549Z" fill="#222223" fill-opacity="0.988235"/>
<path d="M94.9269 41.478L95.0669 41.5778V41.7884L94.5621 42.2356L94.3667 42.1509C94.4007 41.8594 94.7115 41.6745 94.9269 41.478Z" fill="#222223"/>
<path d="M130.658 64.6201C130.697 64.6308 130.736 64.6429 130.773 64.6583C131.356 64.9011 132.059 65.4185 132.312 66.008C131.873 65.8615 131.098 65.6828 130.785 65.3441C130.574 65.1142 130.642 64.9077 130.658 64.6201Z" fill="#222223"/>
<defs>
<linearGradient id="paint0_linear_8_4241" x1="168.865" y1="33.7307" x2="168.804" y2="35.6534" gradientUnits="userSpaceOnUse">
<stop stop-color="#FAECF8"/>
<stop offset="1" stop-color="#F4FAF5"/>
</linearGradient>
<linearGradient id="paint1_linear_8_4241" x1="165.211" y1="45.7065" x2="165.237" y2="44.3761" gradientUnits="userSpaceOnUse">
<stop stop-color="#F4F8F4"/>
<stop offset="1" stop-color="#F8EDF6"/>
</linearGradient>
<linearGradient id="paint2_linear_8_4241" x1="38.6807" y1="27.4723" x2="39.6603" y2="35.0256" gradientUnits="userSpaceOnUse">
<stop stop-color="#E8DFE6" stop-opacity="0.980392"/>
<stop offset="1" stop-color="#F0F8F1"/>
</linearGradient>
<linearGradient id="paint3_linear_8_4241" x1="170.127" y1="27.1443" x2="170.101" y2="28.5172" gradientUnits="userSpaceOnUse">
<stop stop-color="#F6EBF5"/>
<stop offset="1" stop-color="#EDF1EC"/>
</linearGradient>
<linearGradient id="paint4_linear_8_4241" x1="37.6448" y1="26.2174" x2="37.8188" y2="29.4568" gradientUnits="userSpaceOnUse">
<stop stop-color="#FFEEFF"/>
<stop offset="1" stop-color="#D2E1D1"/>
</linearGradient>
<linearGradient id="paint5_linear_8_4241" x1="154.682" y1="47.3556" x2="154.602" y2="49.7124" gradientUnits="userSpaceOnUse">
<stop stop-color="#FFF8FC" stop-opacity="0.984314"/>
<stop offset="1" stop-color="#E2E7E3"/>
</linearGradient>
<linearGradient id="paint6_linear_8_4241" x1="45.7337" y1="21.8185" x2="45.6805" y2="20.0081" gradientUnits="userSpaceOnUse">
<stop stop-color="#DCE6DC"/>
<stop offset="1" stop-color="#F2E0ED"/>
</linearGradient>
<linearGradient id="paint7_linear_8_4241" x1="45.1684" y1="23.6633" x2="45.1968" y2="25.0268" gradientUnits="userSpaceOnUse">
<stop stop-color="#FFF8FE"/>
<stop offset="1" stop-color="#E4EAE5"/>
</linearGradient>
<linearGradient id="paint8_linear_8_4241" x1="46.8596" y1="15.0164" x2="46.7687" y2="12.8628" gradientUnits="userSpaceOnUse">
<stop stop-color="#DEF0E1"/>
<stop offset="1" stop-color="#F1DAEC"/>
</linearGradient>
<linearGradient id="paint9_linear_8_4241" x1="31.7481" y1="33.5875" x2="31.8639" y2="35.9206" gradientUnits="userSpaceOnUse">
<stop stop-color="#FAEAF8"/>
<stop offset="1" stop-color="#E8F0E9"/>
</linearGradient>
<linearGradient id="paint10_linear_8_4241" x1="34.7581" y1="46.3848" x2="34.8972" y2="43.8804" gradientUnits="userSpaceOnUse">
<stop stop-color="#F7FFF9"/>
<stop offset="1" stop-color="#E0CFDB"/>
</linearGradient>
<linearGradient id="paint11_linear_8_4241" x1="169.608" y1="20.1634" x2="169.567" y2="21.5835" gradientUnits="userSpaceOnUse">
<stop stop-color="#F5E7F2"/>
<stop offset="1" stop-color="#EAF0EA"/>
</linearGradient>
<linearGradient id="paint12_linear_8_4241" x1="167.131" y1="14.4996" x2="167.161" y2="13.3611" gradientUnits="userSpaceOnUse">
<stop stop-color="#EDF7EE"/>
<stop offset="1" stop-color="#F3E6F3"/>
</linearGradient>
<linearGradient id="paint13_linear_8_4241" x1="93.0888" y1="14.9327" x2="93.7094" y2="13.0382" gradientUnits="userSpaceOnUse">
<stop stop-color="#99938F"/>
<stop offset="1" stop-color="#686C6F"/>
</linearGradient>
</defs>
</svg>
