<svg width="30" height="25" viewBox="0 0 30 25" fill="none" xmlns="http://www.w3.org/2000/svg">
<path d="M0.75 12.5C0.75 15.7821 2.05379 18.9297 4.37455 21.2504C6.69532 23.5712 9.84295 24.875 13.125 24.875C16.4113 24.875 19.56 23.5825 21.925 21.3L19.8625 19.2375C18.9968 20.1542 17.9522 20.8835 16.7933 21.3802C15.6344 21.8769 14.3859 22.1304 13.125 22.125C4.545 22.125 0.255 11.7575 6.31875 5.69375C12.3825 -0.37 22.75 3.93375 22.75 12.5H18.625L24.125 18H24.2625L29.625 12.5H25.5C25.5 9.21795 24.1962 6.07032 21.8754 3.74955C19.5547 1.42879 16.4071 0.125 13.125 0.125C9.84295 0.125 6.69532 1.42879 4.37455 3.74955C2.05379 6.07032 0.75 9.21795 0.75 12.5Z" fill="white"/>
</svg>
