<svg width="194" height="27" viewBox="0 0 194 27" fill="none" xmlns="http://www.w3.org/2000/svg">
<g clip-path="url(#clip0_9_4753)">
<path d="M44.782 27.1676H41.7684V23.7414H33.4207V27.1676H30.4071V21.1196H31.4016C31.7231 20.484 31.9842 19.7292 32.1852 18.8553C32.3861 17.9615 32.5468 17.0181 32.6673 16.025C32.7879 15.0319 32.8682 14.0189 32.9084 12.9861C32.9486 11.9532 32.9687 10.9701 32.9687 10.0366V8.75545H43.1848V21.1196H44.782V27.1676ZM10.2763 5.83572H8.64901C7.14221 5.83572 6.00709 6.17338 5.24365 6.84869C4.48021 7.524 4.09848 8.41779 4.09848 9.53007C4.09848 10.1657 4.1688 10.7218 4.30944 11.1985C4.45007 11.6553 4.65098 12.0823 4.91215 12.4796C5.19342 12.8768 5.53496 13.2542 5.93678 13.6117C6.35868 13.9494 6.8509 14.3069 7.41343 14.6843L9.25173 15.9058L3.94781 23.7414H0L4.76147 16.74C4.07839 16.2633 3.46563 15.7767 2.92318 15.2801C2.40083 14.7836 1.95883 14.2572 1.5972 13.7011C1.23557 13.145 0.954304 12.5491 0.753398 11.9135C0.572582 11.2581 0.482175 10.5331 0.482175 9.73862C0.482175 8.74552 0.652945 7.84179 0.994485 7.02745C1.35612 6.19324 1.87847 5.48814 2.56155 4.91214C3.24463 4.31627 4.08844 3.85945 5.09297 3.54165C6.11759 3.204 7.29289 3.03517 8.61887 3.03517H13.9228V23.7414H10.2763V5.83572ZM49.3626 17.4252C49.4229 18.7759 49.7444 19.7789 50.327 20.4343C50.9096 21.0898 51.894 21.4175 53.2803 21.4175C54.1241 21.4175 54.9579 21.2785 55.7816 21.0004C56.6254 20.7025 57.3185 20.3748 57.861 20.0172V22.7284C57.3386 23.0859 56.6756 23.3938 55.872 23.652C55.0684 23.9102 54.104 24.0393 52.9789 24.0393C50.7288 24.0393 48.991 23.4037 47.7654 22.1326C46.56 20.8614 45.9573 18.9149 45.9573 16.2931C45.9573 15.161 46.0778 14.1182 46.3189 13.1648C46.5801 12.2114 46.9718 11.3872 47.4942 10.692C48.0166 9.97696 48.6695 9.43076 49.453 9.05338C50.2567 8.65614 51.1909 8.45752 52.2557 8.45752C53.1196 8.45752 53.9031 8.58662 54.6063 8.84483C55.3295 9.10303 55.9423 9.52014 56.4446 10.0961C56.9468 10.6721 57.3286 11.417 57.5897 12.3306C57.871 13.2244 58.0116 14.3268 58.0116 15.6377V17.4252H49.3626ZM28.599 8.75545V23.7414H25.3142V17.3954H20.2212V23.7414H16.9364V8.75545H20.2212V14.7737H25.3142V8.75545H28.599ZM64.0087 16.2037V23.7414H60.7239V8.75545H64.0087V15.9952L69.3126 8.75545H72.7481L67.5949 15.7866L73.4111 23.7414H69.5537L64.0087 16.2037ZM80.4328 24.0393C78.0621 24.0393 76.3041 23.3739 75.159 22.0432C74.0339 20.7124 73.4714 18.7858 73.4714 16.2633C73.4714 15.1312 73.612 14.0884 73.8933 13.135C74.1946 12.1618 74.6266 11.3375 75.1891 10.6622C75.7717 9.96703 76.485 9.43076 77.3288 9.05338C78.1726 8.65614 79.157 8.45752 80.2821 8.45752C81.146 8.45752 81.8893 8.52703 82.5121 8.66607C83.1349 8.78524 83.6272 8.95407 83.9888 9.17255V12.0327C83.6473 11.8142 83.1751 11.6057 82.5724 11.407C81.9697 11.2084 81.3368 11.1091 80.6738 11.1091C79.4483 11.1091 78.5041 11.5361 77.8411 12.3902C77.1982 13.2244 76.8767 14.4857 76.8767 16.1739C76.8767 17.7828 77.168 19.0539 77.7507 19.9874C78.3333 20.921 79.2976 21.3877 80.6437 21.3877C81.367 21.3877 81.9898 21.2983 82.5121 21.1196C83.0546 20.921 83.5468 20.6727 83.9888 20.3748V23.1157C83.5669 23.4137 83.0646 23.6421 82.482 23.801C81.9195 23.9599 81.2364 24.0393 80.4328 24.0393ZM39.8999 11.3772H35.8617V12.0029C35.8617 12.6583 35.8416 13.3932 35.8015 14.2076C35.7613 15.0219 35.691 15.8462 35.5905 16.6804C35.4901 17.5146 35.3494 18.319 35.1686 19.0937C35.0079 19.8683 34.7969 20.5436 34.5358 21.1196H39.8999V11.3772ZM52.1954 11.0793C51.2712 11.0793 50.5781 11.417 50.116 12.0923C49.6539 12.7477 49.4028 13.711 49.3626 14.9822H54.6665V14.5949C54.6665 14.0983 54.6264 13.6415 54.546 13.2244C54.4656 12.7874 54.325 12.4101 54.1241 12.0923C53.9433 11.7745 53.6922 11.5262 53.3707 11.3474C53.0693 11.1687 52.6776 11.0793 52.1954 11.0793Z" fill="white"/>
<path fill-rule="evenodd" clip-rule="evenodd" d="M107.978 17.9096C106.754 19.9377 104.853 20.8316 102.856 20.8316C98.8614 20.8316 95.8864 18.0547 95.8864 13.888V13.6821C95.8864 13.4859 95.8947 13.3052 95.9073 13.1161L113.129 13.1426V0.0229138L102.841 7.3638L92.6077 0V27H113.129V20.8313C111.142 20.8242 109.333 19.9297 107.978 17.9096Z" fill="white"/>
<path fill-rule="evenodd" clip-rule="evenodd" d="M102.857 18.5688C104.868 18.5688 106.1 17.5408 106.262 15.2251H98.9514C99.2717 17.3102 100.9 18.5688 102.857 18.5688Z" fill="white"/>
<path fill-rule="evenodd" clip-rule="evenodd" d="M109.695 15.2251H117.093C116.773 17.3102 115.055 18.5688 113.099 18.5688C111.088 18.5688 109.857 17.5408 109.695 15.2251Z" fill="white"/>
<path d="M184.662 8.75545V18.0509L190.147 8.75545H193.341V23.7414H189.876V14.4757L184.391 23.7414H181.197V8.75545H184.662Z" fill="white"/>
<path d="M179.086 8.75545V11.556H173.541V23.7414H169.955V8.75545H179.086Z" fill="white"/>
<path d="M158.264 8.75545V18.0509L163.749 8.75545H166.943V23.7414H163.477V14.4757L157.993 23.7414H154.798V8.75545H158.264Z" fill="white"/>
<path d="M151.783 8.75545V23.7414H148.196V17.4848H143.405V23.7414H139.819V8.75545H143.405V14.6843H148.196V8.75545H151.783Z" fill="white"/>
<path d="M127.426 14.0288V23.7414H123.78V3.03517H127.426V12.569L133.905 3.03517H137.612L130.861 12.8967L138.305 23.7414H134.056L127.426 14.0288Z" fill="white"/>
</g>
<defs>
<clipPath id="clip0_9_4753">
<rect width="194" height="27" fill="white"/>
</clipPath>
</defs>
</svg>
